<svg xmlns="http://www.w3.org/2000/svg" id="Layer_2" viewBox="0 0 821.77 299.21"><defs><style>.cls-1{fill:#fff}</style></defs><g id="Layer_1-2" data-name="Layer_1"><path d="M37.11 271.58c0 12.11 2.82 21.25 12.42 21.25 3.96 0 7.39-2.21 9.07-5.18v-8.23l-6.55-.61v-5.79h23.39v5.79l-4.8.53v19.12h-6.02c-.53-1.44-1.14-2.89-2.74-2.89-2.52 0-6.1 3.58-14.17 3.58-14.7 0-24.15-8.15-24.15-27.2s11.35-27.81 25.83-27.81c7.01 0 9.9 2.89 12.27 2.89 1.14 0 1.6-.84 2.13-2.21h5.26l.53 17.68h-5.71c-2.29-8.99-6.09-12.42-13.41-12.42-9.22 0-13.33 7.85-13.33 21.49ZM97.89 259.31c12.11-.13 17.71 8.21 16.3 20.95H91.33c.08 7.09 1.68 12.57 8.53 12.57 4.73 0 6.93-2.74 8.76-6.86l5.41 1.9c-2.29 7.16-7.92 11.28-16.08 11.28-12.34 0-18.97-7.77-18.97-19.27 0-13.1 8.08-20.57 18.9-20.57Zm4.5 15.92c.12-6.5-.41-11.58-4.95-11.35-4.49 0-5.87 5.03-6.02 11.35h10.97ZM133.92 259.84l.54 7.24h.46c1.9-3.89 5.18-7.77 12.87-7.77s11.81 3.5 11.81 12.42v20.72l4.8.54v5.33h-20.18v-5.33l3.58-.54v-19.2c0-4.11-.53-6.86-4.72-6.86s-7.31 2.44-7.31 8.61v17.44l3.88.54v5.33h-20.42v-5.33l4.72-.54v-26.28l-4.72-.53v-5.26l14.7-.54ZM186.86 259.31c12.11-.13 17.71 8.21 16.3 20.95H180.3c.08 7.09 1.68 12.57 8.53 12.57 4.73 0 6.93-2.74 8.76-6.86l5.41 1.9c-2.29 7.16-7.92 11.28-16.08 11.28-12.34 0-18.97-7.77-18.97-19.27 0-13.1 8.08-20.57 18.9-20.57Zm4.5 15.92c.12-6.5-.41-11.58-4.95-11.35-4.49 0-5.87 5.03-6.02 11.35h10.97ZM239.65 268h18.59v-16.61l-4.95-.54v-5.86h22.55v5.79l-5.03.54v40.61l5.03.61v5.79h-22.55v-5.79l4.95-.61v-17.29h-18.59v17.29l5.03.61v5.79h-22.63v-5.79l5.03-.61V251.4l-5.03-.54V245h22.63v5.79l-5.03.54v16.68ZM302.03 278.43c-.13-6.19 1.32-14.99-6.78-14.78-2.83-.06-4.98.94-4.19 3.58h2.9c1.25 4.04.03 8.29-5.41 8.23-4.11 0-5.94-2.67-5.94-6.02 0-6.02 5.48-10.13 15.31-10.13s15.92 3.43 15.92 14.4v15.69c-.16 4.34 1.03 4.66 4.26 3.43l1.07 3.89c-4.46 2.93-15 4.65-16.46-3.28-1.37 2.52-4.26 5.71-10.74 5.71-6.09 0-11.2-2.67-11.2-9.98-.2-11.13 11.07-10.9 21.26-10.74Zm0 8.69v-4.72h-2.97c-4.8 0-6.17 1.9-6.17 5.86 0 3.58 1.22 5.18 4.19 5.18 2.59 0 4.96-1.67 4.96-6.32ZM343.62 278.43c-.13-6.2 1.32-14.99-6.78-14.78-2.83-.06-4.97.95-4.19 3.58h2.9c1.25 4.04.03 8.29-5.41 8.23-4.11 0-5.94-2.67-5.94-6.02 0-6.02 5.48-10.13 15.31-10.13s15.92 3.43 15.92 14.4v15.69c-.16 4.34 1.03 4.66 4.26 3.43l1.07 3.89c-4.46 2.93-15 4.65-16.46-3.28-1.37 2.52-4.26 5.71-10.74 5.71-6.09 0-11.2-2.67-11.2-9.98-.2-11.13 11.07-10.9 21.26-10.74Zm0 8.69v-4.72h-2.97c-4.8 0-6.17 1.9-6.17 5.86 0 3.58 1.22 5.18 4.19 5.18 2.59 0 4.96-1.67 4.96-6.32ZM364.11 285.98h4.73c1.22 4.73 5.18 7.92 11.12 7.92 4.26 0 6.32-1.37 6.32-4.19 0-3.43-3.43-4.04-7.69-4.8-6.4-1.14-14.25-2.44-14.25-12.57-.33-11 12.79-16.08 21.33-11.2.53.31 1.07.46 1.6.46.99 0 1.14-.53 1.52-1.83h4.04v11.81h-4.65c-1.98-4.88-4.65-7.24-9.53-7.24-2.97 0-5.79 1.14-5.79 3.96 0 3.12 3.35 3.73 7.47 4.57 6.4 1.22 14.63 2.74 14.63 12.95.3 13.24-14.42 16.07-23.39 10.97-1.74-.7-2.46-.68-3.05 1.9h-4.42v-12.72ZM452.39 244.99l.69 13.79h-2.13c-1.98-9.3-4.65-11.05-12.72-11.05h-9.14v22.32c8.44.01 12.57.9 14.09-9.3h1.75v22.55h-1.9c-1.28-10.84-4.93-10.15-13.94-10.13v22.32l10.59.61v2.21h-23.31v-2.21l6.47-.53v-47.62l-6.47-.61v-2.36h36.04ZM473.87 259.77c10.89 0 16.46 8 16.46 19.58s-6.55 19.81-16.92 19.81-16.53-7.92-16.53-19.5 6.86-19.88 16.99-19.88Zm-.38 3.42c-8.53 0-10.36 8.08-10.36 15.92s1.9 16.53 10.59 16.53 10.36-8 10.36-16-1.83-16.46-10.59-16.46ZM506.01 286.66c0 5.41 1.6 8.15 7.77 8.15s11.05-3.73 11.05-10.82v-20.27l-5.64-.54v-2.59l11.12-.3v34.89l5.03.53v2.59h-9.6l-.53-6.32c-2.44 3.66-6.86 7.16-13.1 7.16-8.15 0-11.58-4.26-11.58-12.57v-22.86l-5.33-.54v-2.59l10.82-.3v26.36ZM551.1 260.15l.31 7.16c2.29-3.65 6.7-7.54 13.41-7.54 8.31 0 11.43 4.27 11.43 13.18v22.32l5.18.53v2.52H565.2v-2.52l5.56-.53v-22.4c0-6.09-1.52-8.99-7.85-8.99-5.94 0-11.2 4.04-11.2 10.21v21.18l5.64.53v2.52H541.2v-2.52l4.95-.53v-31.62l-4.95-.54v-2.44l9.9-.54ZM613.8 264.57v-19.96l-6.32-.61v-2.44l11.88-.38v54.09l5.56.53v2.52H614.1l-.38-5.94c-1.98 3.35-5.64 6.78-12.34 6.78-9.9 0-14.55-7.69-14.55-18.97 0-13.03 6.47-20.42 16.07-20.42 4.19 0 7.93 1.3 10.89 4.8Zm0 20.34V273.1c0-7.09-4.95-9.75-9.83-9.75-8.15 0-10.89 6.4-10.89 16 0 7.32 1.6 15.62 9.98 15.62 5.56 0 10.74-4.19 10.74-10.06ZM651.81 278.36c-.02-7.27.96-15.81-7.92-15.62-2.53-.07-8.23.65-7.01 4.42h2.36c1.06 3.19.3 6.22-3.27 6.25-2.29 0-4.04-1.37-4.04-4.34 0-5.33 5.18-9.3 12.8-9.3 9.07 0 12.65 4.04 12.65 14.4v17.67c0 3.5.61 4.42 2.59 4.42.91 0 1.67-.15 2.51-.46l.54 2.44c-1.3.61-2.67.91-4.42.91-3.66 0-6.02-1.37-6.47-5.41-5.44 7.97-22.16 7.76-21.79-4.19.05-10.97 11.71-11.49 21.48-11.2Zm0 8.91v-5.87h-5.11c-7.39 0-10.13 3.12-10.13 7.47s1.98 6.7 6.47 6.7c4.19 0 8.76-2.67 8.76-8.3ZM669.86 263.81h-5.71v-3.2h5.71v-9.98l4.73-1.52h.84v11.5h8.38v3.2h-8.38v25.6c0 4.42 1.22 6.09 4.26 6.09 2.82 0 4.27-1.06 5.56-5.41l2.59.76c-1.45 6.02-4.49 8.3-9.14 8.3-5.94 0-8.84-2.97-8.84-8.53V263.8ZM703.61 260.22v35.05l5.79.53v2.52h-17.06v-2.52l5.71-.53v-31.62l-5.79-.54v-2.52l11.35-.38Zm-3.59-17.06c2.13 0 3.88.91 3.88 3.96 0 2.51-1.44 3.81-3.81 3.81-2.74 0-3.88-1.52-3.88-3.73 0-2.36 1.22-4.04 3.81-4.04ZM731.94 259.77c10.89 0 16.46 8 16.46 19.58s-6.55 19.81-16.92 19.81-16.53-7.92-16.53-19.5 6.86-19.88 16.99-19.88Zm-.38 3.42c-8.53 0-10.36 8.08-10.36 15.92s1.9 16.53 10.59 16.53 10.36-8 10.36-16-1.83-16.46-10.59-16.46ZM765 260.15l.31 7.16c2.29-3.65 6.7-7.54 13.41-7.54 8.3 0 11.43 4.27 11.43 13.18v22.32l5.18.53v2.52H779.1v-2.52l5.56-.53v-22.4c0-6.09-1.52-8.99-7.85-8.99-5.94 0-11.2 4.04-11.2 10.21v21.18l5.64.53v2.52H755.1v-2.52l4.95-.53v-31.62l-4.95-.54v-2.44l9.9-.54ZM213.58 0l-62.96 109.05-127.46-.13L0 148.97l127.49.14-26.55 45.99h46.27L259.85 0h-46.27zM307.01 0l-62.94 109.01-33.98-.09-23.17 40.05 34.03.1-26.58 46.03h46.27L353.28 0h-46.27zM375.38 0 262.74 195.1h46.27L421.65 0h-46.27zM509.6 0l-81.46 141.08V11.04L389.13 78v30.97l-18.11-.05-23.17 40.05 41.28.13.01 46h54.09L555.87 0H509.6zM670.7 41.48h126.82L821.77 0H652.84c-8.07 0-15.53 4.28-19.6 11.25L587.5 89.57c-6.74 11.55 1.59 26.06 14.96 26.06h60.73l-20.49 34c-1.96 3.26-5.49 5.25-9.29 5.25h-69.87V11.48l-39.02 66.96v30.53l-17.99-.05-23.16 40.06 41.16.12s.01 45.95.01 46.01h126.78c8.07 0 15.53-4.28 19.6-11.25l48.34-82.78c6.7-11.47-1.58-25.89-14.86-25.89h-58.67l17.15-29.21c1.63-2.77 4.61-4.48 7.82-4.48Z" class="cls-1"/></g></svg>