<?xml version="1.0" encoding="UTF-8" standalone="no"?>
<!-- Created with Inkscape (http://www.inkscape.org/) -->

<svg
   version="1.0"
   width="602.36218"
   height="146.09055"
   id="svg2423"
   sodipodi:docname="medtronic.svg"
   inkscape:version="1.3.2 (091e20e, 2023-11-25, custom)"
   xmlns:inkscape="http://www.inkscape.org/namespaces/inkscape"
   xmlns:sodipodi="http://sodipodi.sourceforge.net/DTD/sodipodi-0.dtd"
   xmlns="http://www.w3.org/2000/svg"
   xmlns:svg="http://www.w3.org/2000/svg">
  <sodipodi:namedview
     id="namedview1"
     pagecolor="#ffffff"
     bordercolor="#000000"
     borderopacity="0.25"
     inkscape:showpageshadow="2"
     inkscape:pageopacity="0.0"
     inkscape:pagecheckerboard="0"
     inkscape:deskcolor="#d1d1d1"
     inkscape:zoom="2.5798432"
     inkscape:cx="301.18109"
     inkscape:cy="73.066455"
     inkscape:window-width="2256"
     inkscape:window-height="1398"
     inkscape:window-x="-11"
     inkscape:window-y="-11"
     inkscape:window-maximized="1"
     inkscape:current-layer="svg2423" />
  <defs
     id="defs2425" />
  <g
     id="layer1"
     style="fill:#ffffff;fill-opacity:1">
    <g
       transform="matrix(1.0000155,0,0,1.0000155,-201.67902,-450.7536)"
       id="g3223"
       style="fill:#ffffff;fill-opacity:1">
      <path
         d="M 283.41214,517.51025 C 287.65014,519.25025 291.88914,522.49525 296.87814,527.22525 C 302.85414,527.22525 307.09314,530.22525 310.33914,530.22525 C 313.57714,530.22525 322.80014,527.97925 326.04314,527.97925 C 327.78514,527.97925 330.02714,528.72525 330.77314,528.72525 C 331.52314,528.72525 331.27314,526.97925 331.27314,525.23325 C 331.27314,523.48825 332.01914,521.49425 332.01914,519.75025 C 332.01914,518.00425 331.52314,514.76625 331.52314,514.26525 C 331.52314,513.76725 331.02714,514.01725 330.77314,514.76525 C 330.52714,515.51125 328.28114,523.48825 322.80014,523.48825 C 317.31514,523.48825 313.57714,522.74025 312.07614,522.49425 C 310.58414,522.24225 307.54214,522.86525 304.35314,521.49425 C 302.60714,520.74825 302.10714,520.24825 301.11114,520.00225 C 300.11514,519.75025 299.11414,520.00225 298.11814,519.50225 C 297.12214,519.00225 289.39514,516.01225 283.41014,516.01225 L 283.41014,517.51025 M 322.31314,520.61725 C 322.44214,520.61725 322.56714,520.67625 322.69214,520.65925 C 321.73714,497.75125 304.24214,479.11725 281.84014,476.38625 C 282.14914,477.16725 282.68614,477.93625 282.73214,478.44325 C 282.79514,479.08125 282.16514,478.79325 281.89014,479.14325 C 281.73614,479.34325 281.87314,479.86425 281.84014,480.10825 C 281.74414,480.76025 281.51514,481.20025 281.46114,481.47725 C 281.35714,482.03425 281.63614,482.97925 280.22814,482.97925 C 278.75214,482.97925 276.32714,481.61025 275.86414,481.24825 C 275.46414,480.93925 275.03514,480.89025 274.74314,481.27325 C 274.47614,481.62325 274.69714,482.04225 275.08014,482.33625 C 275.64714,482.78025 277.11014,483.50525 277.98914,483.84325 C 277.68114,486.98825 277.36814,485.74125 277.36814,486.73325 C 277.36814,489.00325 280.54014,489.72325 282.40714,496.05225 C 282.82414,497.46525 282.85314,499.06625 283.10314,501.10625 C 283.36114,503.14625 283.84114,505.62625 283.84114,508.44325 C 283.84114,510.31725 283.79514,511.80625 283.72414,513.06125 C 290.66314,513.56725 291.91814,513.97825 298.97814,516.62425 C 299.59914,516.85725 300.58614,516.57225 301.85714,517.08925 C 303.12814,517.61025 303.05314,517.82725 305.83314,518.60425 C 311.59714,520.22125 307.97914,518.77925 315.16114,519.83025 C 319.96214,520.52825 320.28814,520.61725 322.31314,520.61725 z M 308.32214,556.32425 C 315.15314,549.79725 320.00014,541.22025 321.87114,531.58025 C 318.05814,532.23425 312.83914,533.23025 310.70514,533.23025 C 305.82114,533.23025 302.89914,530.61725 299.59814,530.61725 C 301.15714,532.10125 304.12014,535.45225 304.12014,539.77425 C 304.12014,542.02025 304.12014,543.00725 305.26214,546.64625 C 306.24614,549.78925 307.39314,554.02425 308.32214,556.32425 z M 311.36514,562.64325 C 308.03914,562.06825 306.79714,559.81725 305.80914,557.94625 C 304.81714,556.07925 303.47114,550.98625 302.32514,547.34725 C 301.18314,543.71325 301.18314,542.72125 301.18314,540.47925 C 301.18314,535.14025 297.62814,533.08525 297.03214,532.45225 C 291.00214,526.08925 294.45214,527.24325 282.51614,520.35325 L 282.51214,520.57025 C 282.46214,522.43925 282.82514,528.20625 282.82514,531.52725 C 282.82514,531.93125 282.79214,532.36025 282.73414,532.81525 C 285.10114,534.59025 287.93514,536.07025 290.92314,537.40325 C 295.60314,539.47925 292.88114,542.37125 295.65314,549.86925 C 297.27014,554.24925 301.37514,557.45025 302.87214,561.55925 C 304.67614,566.49425 303.49714,568.48625 304.88114,568.48625 C 306.00214,568.48625 306.66014,567.57725 308.40714,567.05225 C 311.02814,566.26025 309.29514,567.81925 318.38014,563.65925 C 318.95114,563.39625 318.95114,562.96725 318.12614,563.05525 C 314.53614,563.42225 315.18214,563.30925 311.36514,562.64325 z M 276.13914,569.21925 C 284.87514,569.33125 293.05214,566.81925 300.04514,562.63425 C 298.56114,558.55025 294.45614,555.36925 292.84714,551.01025 C 289.67614,542.43825 292.48414,541.29525 289.41714,539.99525 C 286.40014,538.72025 284.39514,537.74425 282.04914,535.98125 C 280.92814,540.04425 278.97714,544.65425 278.97714,546.74625 C 278.97714,547.73825 276.13014,552.09825 276.13014,557.45725 C 276.13014,560.78325 275.10514,564.25125 274.98814,569.21025 L 276.13914,569.21925 z M 268.03314,557.62425 C 268.03314,552.48125 270.83414,551.01025 270.83414,543.18425 C 270.83414,542.09225 270.23814,540.93725 270.23814,536.82825 C 270.23814,535.30725 270.37614,533.65225 270.51714,532.36925 C 267.04514,532.36925 264.73214,531.63625 263.52414,531.63625 C 260.87314,531.63625 255.23814,534.77925 246.84514,534.77925 C 239.89814,534.77925 237.09314,530.54525 234.77114,530.54525 C 233.21214,530.54525 232.01614,531.45725 230.49514,532.02825 C 234.42514,551.20825 250.14114,566.09825 269.75014,568.78725 C 269.09614,565.05625 268.03314,559.87925 268.03314,557.62425 z M 222.61414,523.49325 C 222.61414,527.24225 224.40214,529.21825 227.55314,529.21825 C 231.67114,529.21825 231.00414,527.32225 234.77114,527.32225 C 238.75514,527.32225 239.53914,531.55625 246.84514,531.55625 C 255.23914,531.55625 260.87314,528.41325 263.52414,528.41325 C 264.72014,528.41325 267.00014,529.13025 270.41714,529.15025 C 269.77114,528.06725 268.37114,527.60025 267.72514,524.96625 C 262.52814,521.91325 262.90314,520.57725 260.25214,518.66225 C 259.17214,517.88125 258.16414,517.77025 255.38014,516.28025 L 251.32914,516.59525 C 244.48214,517.12025 242.85614,521.81525 239.65614,521.81525 C 238.55514,521.81525 239.43114,521.50425 237.51014,521.50425 C 236.47214,521.50425 235.23914,521.37525 235.23914,520.47925 C 235.23914,520.02725 235.69714,519.57025 235.69714,518.50325 C 235.69714,517.26925 234.07214,517.44825 233.18814,517.39725 C 231.96714,517.33025 232.35014,516.51325 231.81314,516.51325 C 231.01714,516.51325 230.76314,517.39725 229.02914,517.39725 C 225.44414,517.39825 222.61414,518.55725 222.61414,523.49325 z M 237.06714,497.24325 C 233.87014,502.15925 231.57414,507.71225 230.41114,513.67825 C 231.05314,513.45125 231.15714,513.29725 231.91114,513.29725 C 233.26114,513.29725 233.96614,513.92025 234.43214,514.38525 C 236.74514,514.86825 238.46214,515.15025 238.89114,518.28125 L 239.75814,518.50425 C 244.91814,515.06425 246.94314,513.51925 250.97714,513.51925 C 241.27514,506.38825 243.61314,502.00825 241.35414,499.18025 C 240.45514,498.05425 238.60514,497.97225 237.06714,497.24325 z M 237.21314,485.66125 C 234.81714,488.24125 234.51214,491.40025 237.21314,493.55525 C 239.99314,495.78325 241.66414,494.61825 243.55614,496.97925 C 247.44414,501.84025 242.69714,504.73325 253.17914,511.31825 L 257.58414,514.08325 C 260.25514,515.76025 261.37314,515.67925 262.44814,516.46025 C 264.62314,518.03625 264.63614,519.05525 267.39114,521.14125 L 267.39514,521.18125 C 267.51214,518.40325 268.65414,517.83425 269.42914,515.89025 L 269.20414,515.76925 C 267.29514,514.54025 266.37014,513.58925 265.47814,512.67025 C 265.17814,512.35925 264.88614,512.06425 264.55714,511.75325 C 264.36114,511.56925 263.59414,511.10525 263.03614,510.76725 C 261.99414,510.14025 260.91914,509.49225 260.29414,508.86225 C 259.93114,508.50425 259.54014,508.06025 259.08114,507.54925 C 257.78514,506.07525 255.60514,503.61925 254.19714,503.61925 C 253.05114,503.61925 252.44714,503.94625 252.40114,503.97325 C 251.65914,504.36925 250.73814,504.09225 250.34214,503.34825 C 249.94614,502.61025 250.22514,501.68925 250.96714,501.29125 C 251.15014,501.19325 252.27114,500.57825 254.19714,500.57825 C 256.97214,500.57825 259.51014,503.44325 261.36114,505.53425 C 261.78214,506.00725 262.14514,506.42225 262.44114,506.71525 C 262.80314,507.07825 263.84514,507.70725 264.60414,508.16425 C 265.60014,508.76425 266.23814,509.15425 266.64614,509.54125 C 267.02114,509.89525 267.34614,510.22925 267.65414,510.54725 C 268.35414,511.27025 268.98014,511.91025 270.09214,512.69925 C 270.12514,512.22025 270.14214,511.69525 270.14214,511.11625 C 270.14214,509.42225 269.00414,507.12125 267.99614,503.75425 C 266.34614,503.03325 264.62114,501.98325 263.36614,500.74925 C 259.62714,497.07525 256.87214,497.89025 252.50914,496.96025 C 250.35814,496.49825 250.61314,495.43125 249.49614,494.04925 C 249.24214,494.34725 246.99114,495.12925 246.99114,495.12925 C 246.47414,495.35425 245.87814,495.09625 245.66114,494.57525 C 245.44914,494.05425 245.69914,493.45625 246.22014,493.24325 C 246.68214,493.05525 249.65414,491.83025 250.37914,491.04925 C 251.22114,490.14525 249.90814,489.17525 249.29614,488.53625 C 248.45014,487.65325 249.28314,487.31925 248.88814,486.95325 C 248.30814,486.41125 247.51614,486.88425 246.25014,485.70725 C 243.61914,483.26525 240.56814,482.04525 237.21314,485.66125 z M 268.72114,476.62925 C 261.94014,477.71325 255.64714,480.26125 250.17514,483.94325 C 252.29614,485.50225 252.14614,486.68325 252.14614,487.12325 C 253.70514,488.98425 253.70514,490.49025 253.70514,490.49025 C 253.70514,490.49025 253.70514,492.24525 252.75114,493.02425 L 253.21814,493.86125 C 262.81214,495.07625 262.52014,496.24125 266.99614,499.51525 C 266.70014,497.77925 266.50414,495.84125 266.50414,493.66125 C 266.50414,488.27425 270.53014,485.15525 270.53014,481.89325 C 270.53014,479.42025 269.36714,478.15325 268.72114,476.62925 z M 280.81114,531.02225 L 280.29014,529.96825 C 279.53614,528.45925 279.01014,527.35125 277.01814,525.28325 C 276.90614,525.17125 276.65614,524.64925 276.73114,522.26725 C 276.77314,520.94425 276.85214,519.64325 276.92214,518.49125 C 277.00914,517.11625 277.08114,515.93025 277.08114,514.94025 C 277.08114,512.57125 276.93114,511.80825 276.78514,511.06825 C 276.63514,510.33525 276.48514,509.57425 276.48514,506.88125 C 276.48514,504.18025 276.32214,502.93825 276.22214,502.11325 C 276.17614,501.77425 276.14314,501.52125 276.14314,501.29425 C 276.14314,500.19425 276.25614,499.41225 276.37214,498.58525 C 276.48914,497.73925 276.61414,496.87025 276.61414,495.65725 C 276.61414,492.34225 275.83914,491.67925 273.60514,490.14725 L 273.55114,490.10925 C 273.55114,490.10925 272.70914,489.95525 272.46314,490.30925 C 272.22114,490.66325 272.30914,491.14925 272.66714,491.39225 L 272.72614,491.43025 C 274.64314,492.74525 275.05614,493.02625 275.05614,495.65625 C 275.05614,496.75625 274.94414,497.54225 274.83114,498.36525 C 274.71014,499.21125 274.58514,500.08225 274.58514,501.29325 C 274.58514,501.61825 274.62714,501.92425 274.67714,502.31025 C 274.77314,503.09625 274.92314,504.28125 274.92314,506.88025 C 274.92314,509.72725 275.09414,510.56425 275.25214,511.37125 C 275.39414,512.06525 275.52714,512.72325 275.52714,514.93825 C 275.52714,515.88025 275.45214,517.04125 275.36814,518.39125 C 275.29314,519.55625 275.21414,520.87025 275.17214,522.21925 C 275.09714,524.61725 275.29314,525.74325 275.89714,526.36425 C 277.11814,527.62825 277.72714,528.47325 278.21014,529.31925 C 277.66014,529.03225 277.26414,529.24925 277.11814,529.35725 C 276.43514,529.87425 276.71014,530.82425 277.32314,532.90825 C 277.61514,533.92525 278.14014,535.73325 278.08114,536.40025 C 277.53114,536.39225 276.62314,536.15925 276.14314,535.73325 C 275.67614,535.30825 274.86414,533.65825 274.25914,531.90325 C 273.85514,530.71925 274.03414,528.92425 274.03414,528.90725 C 274.08414,528.48125 273.77114,528.09825 273.34214,528.05325 C 272.91714,528.00725 272.53314,528.31625 272.48814,528.74425 C 272.47914,528.83225 272.26714,530.89925 272.78414,532.40825 C 272.98014,532.98725 274.03014,535.92625 275.10514,536.89225 C 276.08014,537.76325 277.68914,538.03025 278.46814,537.94225 C 278.83514,537.90025 279.15614,537.70125 279.36014,537.39225 C 279.93114,536.52925 279.51914,534.96225 278.81414,532.47425 L 278.48914,531.32425 L 279.72714,532.05025 C 280.02714,532.22525 280.40614,532.17525 280.65614,531.93725 C 280.90714,531.70125 280.96514,531.32625 280.81114,531.02225 z M 334.77914,519.83225 C 334.77914,522.24325 334.19914,523.60825 334.19914,524.42925 C 334.19914,525.24225 334.50814,526.02625 334.50814,527.30925 C 334.50814,529.67225 333.06614,531.82725 330.49414,531.82725 C 329.13114,531.82725 327.96414,531.01425 325.97214,531.01425 C 325.76014,531.01425 325.45114,531.03925 325.06414,531.08025 C 323.19214,541.98725 317.76214,551.67725 310.01414,558.91625 C 310.52714,559.35025 311.07314,559.59225 311.63914,559.68725 C 313.98514,560.08325 314.63614,560.23725 315.29014,560.25025 C 315.72814,560.25825 316.16114,560.20425 317.09014,560.11625 C 318.40314,559.98725 320.65014,559.53325 321.61214,562.25025 C 322.51214,564.78425 320.09114,566.11825 319.13614,566.57225 C 318.07714,567.06825 316.17314,567.99325 313.89714,568.80125 C 311.62214,569.61025 310.30514,569.52725 309.53414,569.80125 C 308.76314,570.07625 307.78414,570.78525 306.57114,571.21425 C 304.34514,572.01025 302.40714,571.41825 301.54514,568.99325 C 301.02414,567.52525 301.27014,567.19225 300.94514,565.63425 C 293.64814,569.85225 285.17414,572.32725 276.13914,572.26925 L 275.66414,572.26525 C 276.33514,573.50225 277.41114,574.03625 278.35214,574.51925 C 279.45214,575.08625 281.26514,576.41525 282.08214,576.69525 C 282.89914,576.98725 284.66614,577.30325 284.94914,577.42425 C 285.61614,577.72025 285.39514,578.70825 284.74114,578.74525 C 283.19014,578.84125 279.34414,579.12025 278.47714,579.12025 C 276.26014,579.12025 275.23914,578.55725 273.61814,578.55725 C 272.67614,578.55725 272.37114,578.83625 271.20114,578.83625 C 269.67614,578.83625 269.47214,577.86925 269.47214,577.31125 C 269.47214,576.13525 270.37614,574.79725 270.25114,572.51425 L 270.21814,571.91725 C 248.85014,569.37725 231.64114,553.25725 227.46914,532.43125 C 222.65614,531.94325 219.39214,529.36725 219.39214,523.49325 C 219.39214,519.95925 221.01414,514.98225 227.19814,514.32225 C 228.36114,507.41225 230.95314,500.98525 234.66214,495.36125 C 230.39814,490.97625 232.25714,486.32125 234.96614,483.55625 C 236.79614,481.68725 239.21314,480.24325 241.70514,480.24325 C 244.20214,480.24325 246.30214,481.68725 247.11914,482.23325 L 247.22714,482.28125 C 253.37414,477.87225 260.57214,474.82525 268.37014,473.60025 C 268.72114,470.43725 270.70114,468.46125 274.68114,468.46125 C 280.12814,468.46125 281.12414,471.80325 281.19914,472.48125 C 281.22414,472.70925 281.29914,472.98525 281.38714,473.26725 C 304.90914,475.73925 323.54314,494.63925 325.58914,518.28225 C 325.91814,517.79725 326.21414,517.31525 326.48114,516.90925 C 327.41914,515.50425 327.37714,515.35025 327.65214,514.22125 C 327.92314,513.09025 328.43114,510.51625 331.11514,510.51625 C 333.80314,510.51625 334.42814,513.16725 334.46614,514.33625 C 334.50814,515.50325 334.77914,517.41325 334.77914,519.83225 z"
         id="path11"
         style="fill:#ffffff;fill-opacity:1" />
      <path
         d="M 546.03125,491.28125 L 546.03125,508.375 L 538.4375,508.375 L 538.4375,520.21875 L 546.03125,520.21875 L 546.03125,535.03125 C 546.03123,537.55628 544.2385,541.21875 539.6875,541.21875 C 536.34848,541.21876 533.75,538.72325 533.75,535.03125 L 533.75,491.34375 L 514.375,491.34375 L 514.375,514.375 C 510.07298,507.04799 500.5625,507.0625 500.5625,507.0625 C 497.08249,507.06249 484.35675,509.2085 482.46875,526.0625 C 480.18475,514.09549 472.65875,507.15625 459.09375,507.15625 C 441.76076,507.15625 433.809,519.331 434,528.75 L 434.03125,530.28125 L 428.6875,495.4375 L 403.78125,495.4375 L 396.53125,523.3125 L 389.28125,495.4375 L 364.40625,495.4375 L 355.65625,552.5 L 375.65625,552.5 L 380.1875,520.09375 L 388.65625,552.5 L 404.40625,552.5 L 412.875,520.09375 L 417.4375,552.5 L 437.4375,552.5 L 435.21875,538.03125 C 437.96574,547.33327 445.6515,553.71875 459.9375,553.71875 C 459.93751,553.71872 474.366,553.6975 480.625,549.4375 L 480.625,538.75 C 475.20699,542.56698 464.75,542.59375 464.75,542.59375 C 454.28901,542.59378 452.65625,538.77075 452.65625,534.71875 L 482.46875,534.71875 C 483.96475,548.20573 492.61275,553.6875 500.46875,553.6875 C 500.46875,553.68747 512.2785,553.67075 514.8125,541.96875 C 514.8125,545.63175 521.02025,553.875 531.40625,553.875 C 531.40624,553.87499 542.50475,553.889 550.34375,549 C 553.50272,553.58002 562.375,553.5625 562.375,553.5625 C 562.37498,553.56251 569.14225,553.58175 575.28125,551.34375 L 575.28125,540.125 C 573.51025,540.42898 571.875,540.4375 571.875,540.4375 C 568.77803,540.43753 565.5625,538.944 565.5625,534.375 L 565.5625,520.21875 L 575.28125,520.21875 L 575.28125,508.40625 L 565.625,508.40625 L 565.625,491.28125 L 546.03125,491.28125 z M 721.21875,491.3125 L 721.21875,503.84375 L 740.375,503.84375 L 740.375,491.3125 L 721.21875,491.3125 z M 638.09375,507.15625 C 628.52578,507.15625 619.57775,510.51875 614.96875,517.59375 L 614.96875,508.6875 C 614.01473,508.38551 611.84375,508.375 611.84375,508.375 C 604.65076,508.37501 599.81125,514.9285 597.53125,519.6875 L 597.53125,508.40625 L 579.25,508.40625 L 579.25,552.65625 L 597.53125,552.65625 L 597.53125,535.09375 C 597.53124,533.33473 601.4555,524.25 610.3125,524.25 C 610.79947,524.24998 611.4915,524.352 612.1875,524.5 C 611.88253,526.00498 611.71875,527.63075 611.71875,529.34375 L 611.71875,531.1875 C 611.71876,546.93351 624.24875,553.75 638.09375,553.75 C 651.93478,553.74998 664.46875,546.9335 664.46875,531.1875 L 664.46875,529.34375 C 664.46973,514.17674 651.93475,507.15625 638.09375,507.15625 z M 699.34375,507.28125 C 693.95476,507.28126 689.288,510.144 685.875,517.25 L 685.875,508.40625 L 667.625,508.40625 L 667.625,552.65625 L 685.875,552.65625 L 685.875,527.59375 C 685.87498,524.53472 686.4735,521.1875 689.9375,521.1875 C 693.39648,521.18752 694.25,524.54275 694.25,527.59375 L 694.25,539.375 C 694.25,545.83901 700.5645,552.65625 708.6875,552.65625 L 740.375,552.65625 L 740.375,508.4375 L 721.21875,508.4375 L 721.21875,539.75 L 716.46875,539.75 C 715.16773,539.75002 713.53125,538.7015 713.53125,536.5625 L 713.53125,521.28125 C 713.53128,512.57927 705.92875,507.28125 699.34375,507.28125 z M 771.3125,507.28125 C 747.01449,507.28124 743.125,520.8975 743.125,530.0625 C 743.12497,539.21848 747.14175,553.5625 771.59375,553.5625 C 771.59376,553.56251 781.9825,553.56075 786.3125,551.34375 L 786.3125,538.09375 C 782.59047,540.50675 777.1875,540.5 777.1875,540.5 C 771.76449,540.49998 766.125,538.1515 766.125,530.0625 C 766.12602,521.96948 772.75925,519.71875 776.65625,519.71875 C 776.65626,519.71872 780.5315,519.7225 786.3125,521.9375 L 786.3125,509.375 C 781.5235,507.28301 771.3125,507.28125 771.3125,507.28125 z M 459.46875,518.6875 C 462.21575,518.68748 465.59825,520.5575 466.28125,527.3125 L 452.65625,527.3125 C 453.34425,520.55651 456.72675,518.6875 459.46875,518.6875 z M 506.1875,519.6875 C 508.95551,519.68749 512.5,520.7775 512.5,529.9375 C 512.49998,539.09748 508.9545,540.1875 506.1875,540.1875 C 503.42051,540.18749 499.90625,539.0975 499.90625,529.9375 C 499.90626,520.77648 503.4205,519.6875 506.1875,519.6875 z M 637.78125,519.6875 C 640.54422,519.68749 644.0625,520.7775 644.0625,529.9375 C 644.06251,539.09748 640.54325,540.1875 637.78125,540.1875 C 635.01322,540.18749 631.46875,539.0975 631.46875,529.9375 C 631.46876,520.77648 635.01325,519.6875 637.78125,519.6875 z"
         id="path13"
         style="fill:#ffffff;fill-opacity:1" />
    </g>
  </g>
</svg>
