<?xml version="1.0" encoding="UTF-8" standalone="no"?>
<svg
   width="360"
   height="360"
   viewBox="0 0 360 360"
   version="1.1"
   id="svg1"
   xmlns="http://www.w3.org/2000/svg"
   xmlns:svg="http://www.w3.org/2000/svg">
  <defs
     id="defs1" />
  <path
     id="Logo_Banner_Overlay"
     data-name="Logo Banner Overlay"
     d="M 0,180 A 180,180 0 1 1 180,360 180,180 0 0 1 0,180 Z m 9.479,0 a 170.521,170.521 0 1 0 337.757,-33.43 c -6.1,10.483 -22.3,16.39 -22.3,16.39 0,0 8.108,-0.425 6.036,1.853 -9.211,10.133 -28.46,10.428 -26.175,11.208 a 53.71,53.71 0 0 0 5.459,1.286 48.646,48.646 0 0 1 -5.638,4.962 124.642,124.642 0 0 1 -220.765,77.058 c -5.136,3.235 -9.644,6.373 -13.344,9.019 -3.885,3.1 -7.742,6.231 -11.687,9.259 -0.027,-0.759 -0.024,-1.492 -0.007,-2.207 a 3.3,3.3 0 0 1 0.058,-1.4 34.872,34.872 0 0 1 1.73,-9.148 c -3.988,1.928 -16.07,2.335 -16.07,2.335 6.035,-3.609 10.42,-12.015 10.42,-12.015 -6.236,6.059 -17.755,4.121 -17.755,4.121 a 51.829,51.829 0 0 0 10.715,-8.628 c -7.173,1.721 -13.605,-3.257 -13.605,-3.257 5.663,0.922 13.887,-3.5 13.887,-3.5 -5.1,0.972 -12.559,-1.79 -12.559,-1.79 3.76,-1.522 12.277,-5.814 12.277,-5.814 -2.6,0.005 -10.958,-1.089 -13.454,-1.424 0.036,-0.052 0.054,-0.118 0.087,-0.172 a 12.62,12.62 0 0 0 7.363,-3.191 11.978,11.978 0 0 0 1.6,-1.682 c -9.982,1 -14.9,-14.446 -14.9,-14.446 1.941,1.88 4.8,2.891 7.328,3.671 q 1.179,0.364 2.381,0.649 c 7.23,1.711 14.72,1.218 22.057,0.645 0.542,-0.043 1.08,-0.088 1.621,-0.13 a 123.5,123.5 0 0 1 -3.747,-13.473 c -1.017,-0.077 -2.094,-0.175 -3.277,-0.292 q 1.557,-0.678 2.93,-1.3 c -0.491,-2.393 -0.9,-4.815 -1.255,-7.257 a 42.876,42.876 0 0 1 -18.472,-5.726 c 3.94,-0.593 8.869,-4.584 8.869,-4.584 -10.378,1.363 -22.094,-3.478 -18.881,-4.06 a 33.984,33.984 0 0 0 6.606,-2.1 c -5.1,-0.559 -14.933,-4.484 -12.48,-4.492 a 11.2,11.2 0 0 0 5.081,-1.733 c -7.34,-1.281 -10.936,-7.844 -10.936,-7.844 14.218,3.818 29.052,3.571 39.312,2.823 a 124.64,124.64 0 0 1 217.469,-72.921 21.13,21.13 0 0 0 0.354,-5.459 2.909,2.909 0 0 0 -0.437,-2.632 11.977,11.977 0 0 0 -1.571,-1.207 4.333,4.333 0 0 0 -1.21,-1.024 8.9,8.9 0 0 1 -1.652,-13.1 c 3.961,3.611 8.058,6.951 8.073,12.485 a 7.225,7.225 0 0 0 2.465,-3.04 24.558,24.558 0 0 0 2.26,-7.147 7.788,7.788 0 0 0 -0.849,-5.123 18.75,18.75 0 0 0 -0.972,-1.871 c -3.528,-5.5 -4,-11.039 -1.466,-16.753 a 22.185,22.185 0 0 0 0.98,-4.795 c 9.111,2.994 11.572,11.871 5.034,17.488 -0.152,0.132 -0.312,0.255 -0.468,0.383 -2.414,1.975 -2.4,1.967 -0.868,4.614 0.59,1.025 1.081,2.094 1.627,3.165 0.835,-0.311 0.77,-0.969 0.84,-1.452 0.581,-4.036 6.115,-5.962 11.055,-4.677 0.584,0.152 0.9,0.406 0.9,1.014 0.042,3.395 -3.886,8.092 -7.376,8.791 a 7.041,7.041 0 0 1 -3.514,-0.056 c -1.6,-0.492 -2.069,0.145 -2.241,1.463 a 27.426,27.426 0 0 1 -2.47,8.281 c -0.447,0.758 -0.531,1.681 -1.212,2.309 a 0.66,0.66 0 0 1 -0.408,0.238 c 0.112,0.137 0.238,0.117 0.393,-0.077 a 2.029,2.029 0 0 1 1.9,-0.857 c 5.891,-3.158 12.267,-3.178 19.13,-1.667 -0.584,3.583 -3.179,5.5 -6.367,6.858 -4.589,1.954 -9.437,1.338 -14.159,-0.042 -3.741,-1.094 -3.456,-1.244 -4.1,2.234 -0.312,1.675 -0.532,3.373 -0.732,5.075 q 1.745,2.113 3.4,4.31 c 0.5,0.018 1,0.036 1.45,0.06 3.213,0.182 2.379,1.087 0.972,1.652 -0.3,0.119 -0.583,0.261 -0.874,0.386 q 1.906,2.641 3.681,5.381 c 1.933,-0.926 2.643,-2.4 2.237,-4.641 a 11.009,11.009 0 0 1 2.537,-9.51 9.411,9.411 0 0 1 1.5,-1.452 c 3.262,-2.429 4.524,-2.059 5.581,1.658 a 15.328,15.328 0 0 1 0.7,4.61 c -0.113,3.983 -2.054,6.224 -6.288,7.214 -1.6,0.375 -1.6,0.375 -2.821,2.154 5.748,0.9 9.316,3.914 11.033,9.113 a 15.742,15.742 0 0 1 -9.753,-1.195 123.785,123.785 0 0 1 10.234,24.862 c 5.722,0.5 11.593,1.024 17.406,1.29 A 67.028,67.028 0 0 0 346.179,141.59 170.541,170.541 0 0 0 9.479,180 Z m 169.537,53.08 c -22.079,3.942 -27.8,3.123 -45.274,5.938 -15.674,2.525 -30.009,8.832 -41.864,15.519 a 115.4,115.4 0 0 0 203.267,-66.683 c -8.367,3.441 -21.066,4.944 -21.066,4.944 10.49,0.842 11.135,1.621 11.215,2.814 0.207,3.031 -20.528,6.755 -20.376,7.37 l 8.7,4.155 a 0.328,0.328 0 0 1 0.036,0.614 145.8,145.8 0 0 1 -29.973,8.962 76.908,76.908 0 0 1 -18.6,1.439 60.563,60.563 0 0 1 -10.715,-1.2 c -0.216,-0.051 -0.426,-0.126 -0.641,-0.182 -5.376,5.853 -18.465,13.409 -34.709,16.31 z M 81.391,203.823 a 130.141,130.141 0 0 1 -13.715,2.777 114.4,114.4 0 0 0 3.787,12.79 c 3.561,-0.364 7.114,-0.806 10.684,-1.416 15.208,-2.6 32.579,-2.164 64.291,-10.822 37.508,-10.236 47.353,-30.846 47.353,-30.846 -13.523,21.694 -52.843,30.334 -67.953,32.819 -8.091,1.34 -21.164,1.594 -31.019,1.453 -3.419,-0.049 -8.007,0.019 -12.172,0.086 -6.194,0.1 -11.454,0.2 -10.55,-0.081 7.02,-2.188 9.711,-6.772 9.335,-6.772 a 0.1,0.1 0 0 0 -0.041,0.012 z M 65.911,197.7 c 0.163,1.053 0.369,2.092 0.561,3.134 5.295,-3.044 5.623,-4.34 5.623,-4.34 a 45.563,45.563 0 0 1 -6.184,1.206 z m -0.84,-28.385 0.79,-0.079 c 8.144,-0.763 18.524,-3.457 28.959,-6.958 a 247.505,247.505 0 0 0 36.834,-15.645 135.75,135.75 0 0 1 25.887,-10.833 c 8.1,-2.357 15.655,-3.44 21.179,-2.405 17.88,3.345 17.26,14.105 17.26,14.105 1.689,-3.383 2.128,-4.181 2.128,-4.181 a 68.339,68.339 0 0 1 9.9,-12.319 c 6.809,-6.83 21.731,-19.656 35.062,-23.468 5.2,-1.466 15.532,-2.262 24.654,-2.528 A 115.4,115.4 0 0 0 65.071,169.315 Z M 237.46,166.86 c 8.449,-8.026 5.78,-5.667 11.34,-10.434 4.811,-4.123 9.759,-8.493 15.845,-10.428 6.8,-2.162 15.589,-2.135 25.209,-1.5 A 114.885,114.885 0 0 0 276.8,117.135 c -1.786,-0.175 -3.469,0.129 -3.858,2.077 -0.6,3.016 -2.755,12.616 -3.449,15.61 -0.826,3.55 -0.093,3.726 -4.572,2.734 q 0.742,-3.02 1.484,-6.045 c 1.244,-3.923 3.042,-12.72 4.109,-18.169 -9.393,7.175 -16.937,17.49 -21.705,27.5 -3.384,7.1 -6.245,14.44 -9.419,21.637 -1.505,3.414 -1.243,2.827 -0.982,2.241 l 0.2,-0.45 z m -63.086,163.83 0.661,-0.012 a 10.519,10.519 0 0 0 3.136,5.844 7.1,7.1 0 0 0 4.874,1.945 4.551,4.551 0 0 0 3.177,-1.146 3.292,3.292 0 0 0 0.66,-4.219 5.289,5.289 0 0 0 -1.413,-1.505 21.024,21.024 0 0 0 -3.324,-1.831 28.375,28.375 0 0 1 -4.808,-2.689 8.477,8.477 0 0 1 -2.273,-2.521 6.358,6.358 0 0 1 -0.833,-3.1 6.583,6.583 0 0 1 2.044,-4.975 7.441,7.441 0 0 1 5.332,-2.133 9.064,9.064 0 0 1 2.3,0.246 11.493,11.493 0 0 1 2.062,0.76 4.834,4.834 0 0 0 1.7,0.552 0.949,0.949 0 0 0 0.728,-0.3 3.252,3.252 0 0 0 0.476,-1.386 l 0.539,-0.01 0.336,8.085 -0.734,0.012 a 8.282,8.282 0 0 0 -2.633,-4.848 6.412,6.412 0 0 0 -4.425,-1.776 4.127,4.127 0 0 0 -2.874,1.024 2.975,2.975 0 0 0 -1.025,2.265 2.732,2.732 0 0 0 0.4,1.425 6.074,6.074 0 0 0 1.693,1.636 37.794,37.794 0 0 0 3.919,2.026 q 4.294,2.02 5.814,3.855 a 6.692,6.692 0 0 1 1.54,4.232 6.886,6.886 0 0 1 -2.28,5.275 8.53,8.53 0 0 1 -5.984,2.3 9.745,9.745 0 0 1 -2.169,-0.194 16.47,16.47 0 0 1 -2.573,-0.834 3.881,3.881 0 0 0 -1.42,-0.332 1.757,1.757 0 0 0 -0.979,0.375 2.5,2.5 0 0 0 -0.822,1.107 l -0.662,0.012 z m -19.543,7.319 0.078,-0.658 0.8,0.092 a 3.369,3.369 0 0 0 1.732,-0.172 1.639,1.639 0 0 0 0.81,-0.771 7.305,7.305 0 0 0 0.459,-2.216 l 1.864,-15.853 a 7.974,7.974 0 0 0 0.076,-2.333 1.781,1.781 0 0 0 -0.7,-0.9 3.211,3.211 0 0 0 -1.568,-0.537 l -0.8,-0.093 0.077,-0.657 12.6,1.479 -0.077,0.658 -0.8,-0.095 a 3.366,3.366 0 0 0 -1.732,0.175 1.718,1.718 0 0 0 -0.829,0.768 7.422,7.422 0 0 0 -0.459,2.217 l -1.862,15.853 a 7.678,7.678 0 0 0 -0.068,2.335 1.858,1.858 0 0 0 0.7,0.9 3.237,3.237 0 0 0 1.57,0.537 l 0.8,0.093 -0.078,0.657 z m 43.743,-8.346 0.65,-0.117 a 10.513,10.513 0 0 0 4.027,5.268 7.115,7.115 0 0 0 5.124,1.144 4.547,4.547 0 0 0 2.951,-1.64 3.288,3.288 0 0 0 -0.02,-4.269 5.309,5.309 0 0 0 -1.636,-1.261 21.04,21.04 0 0 0 -3.574,-1.276 28.371,28.371 0 0 1 -5.176,-1.89 8.52,8.52 0 0 1 -2.646,-2.125 6.362,6.362 0 0 1 -1.315,-2.927 6.584,6.584 0 0 1 1.225,-5.238 7.444,7.444 0 0 1 4.923,-2.956 9.121,9.121 0 0 1 2.3,-0.122 11.424,11.424 0 0 1 2.158,0.421 4.8,4.8 0 0 0 1.766,0.274 0.962,0.962 0 0 0 0.673,-0.41 3.319,3.319 0 0 0 0.249,-1.446 l 0.529,-0.095 1.622,7.927 -0.723,0.129 a 8.3,8.3 0 0 0 -3.374,-4.367 6.423,6.423 0 0 0 -4.652,-1.048 4.116,4.116 0 0 0 -2.673,1.472 2.965,2.965 0 0 0 -0.65,2.4 2.715,2.715 0 0 0 0.623,1.343 6.09,6.09 0 0 0 1.93,1.344 37.509,37.509 0 0 0 4.193,1.375 q 4.563,1.307 6.353,2.878 a 6.7,6.7 0 0 1 2.2,3.933 6.891,6.891 0 0 1 -1.409,5.572 8.517,8.517 0 0 1 -5.54,3.221 9.671,9.671 0 0 1 -2.173,0.153 16.511,16.511 0 0 1 -2.673,-0.41 3.9,3.9 0 0 0 -1.456,-0.105 1.765,1.765 0 0 0 -0.906,0.527 2.514,2.514 0 0 0 -0.634,1.223 l -0.653,0.117 z m -63.7,3.066 0.2,-0.63 0.749,0.242 a 3.412,3.412 0 0 0 1.752,0.17 1.755,1.755 0 0 0 0.945,-0.6 7.4,7.4 0 0 0 0.878,-2.085 l 5.522,-17.119 -15.652,18.213 -0.408,-0.132 -2.247,-23.815 -5.246,16.265 a 14.771,14.771 0 0 0 -0.59,2.123 2.547,2.547 0 0 0 0.514,1.7 4.211,4.211 0 0 0 2.151,1.286 l -0.2,0.631 -7.9,-2.549 0.2,-0.63 0.239,0.076 a 3.837,3.837 0 0 0 1.511,0.215 2.428,2.428 0 0 0 1.232,-0.383 3.434,3.434 0 0 0 0.929,-1.074 q 0.1,-0.175 0.595,-1.726 l 4.712,-14.614 a 7.732,7.732 0 0 0 0.519,-2.248 1.8,1.8 0 0 0 -0.519,-1.014 3.267,3.267 0 0 0 -1.443,-0.832 l -0.733,-0.236 0.2,-0.63 9.435,3.042 1.581,17.325 11.178,-13.206 9.4,3.034 -0.2,0.63 -0.75,-0.242 a 3.389,3.389 0 0 0 -1.75,-0.17 1.747,1.747 0 0 0 -0.939,0.581 7.209,7.209 0 0 0 -0.874,2.067 l -4.911,15.228 a 7.992,7.992 0 0 0 -0.527,2.273 1.79,1.79 0 0 0 0.516,1.024 3.268,3.268 0 0 0 1.443,0.831 l 0.749,0.243 -0.2,0.63 z m 87.436,0.2 0.767,-0.246 a 3.35,3.35 0 0 0 1.5,-0.875 1.632,1.632 0 0 0 0.419,-1.037 7.342,7.342 0 0 0 -0.5,-2.207 l -4.87,-15.2 a 7.959,7.959 0 0 0 -0.9,-2.156 1.787,1.787 0 0 0 -1.006,-0.533 3.225,3.225 0 0 0 -1.649,0.163 l -0.767,0.246 -0.2,-0.631 12.084,-3.871 0.2,0.63 -0.765,0.246 a 3.344,3.344 0 0 0 -1.505,0.877 1.709,1.709 0 0 0 -0.437,1.041 7.411,7.411 0 0 0 0.5,2.207 l 4.87,15.2 a 7.644,7.644 0 0 0 0.907,2.151 1.846,1.846 0 0 0 1.014,0.531 3.223,3.223 0 0 0 1.649,-0.163 l 0.767,-0.246 0.2,0.631 -12.084,3.871 z m 15.19,-13.49 0.6,-0.286 a 10.493,10.493 0 0 0 5.283,4.007 7.1,7.1 0 0 0 5.243,-0.259 4.546,4.546 0 0 0 2.411,-2.365 3.292,3.292 0 0 0 -1.157,-4.109 5.282,5.282 0 0 0 -1.911,-0.782 21.063,21.063 0 0 0 -3.785,-0.279 28.341,28.341 0 0 1 -5.492,-0.445 8.508,8.508 0 0 1 -3.116,-1.345 6.333,6.333 0 0 1 -2.047,-2.472 6.584,6.584 0 0 1 -0.213,-5.374 7.446,7.446 0 0 1 3.961,-4.161 9.206,9.206 0 0 1 2.188,-0.73 11.272,11.272 0 0 1 2.192,-0.167 4.847,4.847 0 0 0 1.777,-0.207 0.955,0.955 0 0 0 0.538,-0.575 3.317,3.317 0 0 0 -0.143,-1.459 l 0.483,-0.232 3.674,7.209 -0.662,0.318 a 8.293,8.293 0 0 0 -4.415,-3.313 6.418,6.418 0 0 0 -4.763,0.227 4.116,4.116 0 0 0 -2.184,2.13 2.965,2.965 0 0 0 0.01,2.485 2.728,2.728 0 0 0 0.958,1.128 6.081,6.081 0 0 0 2.219,0.782 37.281,37.281 0 0 0 4.408,0.21 q 4.743,0.05 6.889,1.086 a 6.7,6.7 0 0 1 3.162,3.206 6.885,6.885 0 0 1 0.124,5.746 8.528,8.528 0 0 1 -4.484,4.579 9.808,9.808 0 0 1 -2.054,0.726 16.456,16.456 0 0 1 -2.687,0.314 3.9,3.9 0 0 0 -1.431,0.288 1.767,1.767 0 0 0 -0.733,0.749 2.516,2.516 0 0 0 -0.286,1.347 l -0.6,0.286 z m 21.571,-11.019 0.544,-0.379 a 10.49,10.49 0 0 0 5.857,3.108 7.1,7.1 0 0 0 5.135,-1.1 4.547,4.547 0 0 0 2,-2.72 3.292,3.292 0 0 0 -1.8,-3.871 5.323,5.323 0 0 0 -2.007,-0.458 20.984,20.984 0 0 0 -3.783,0.331 28.461,28.461 0 0 1 -5.49,0.441 8.511,8.511 0 0 1 -3.289,-0.829 6.352,6.352 0 0 1 -2.419,-2.112 6.591,6.591 0 0 1 -1.071,-5.271 7.444,7.444 0 0 1 3.243,-4.74 9.11,9.11 0 0 1 2.044,-1.072 11.213,11.213 0 0 1 2.137,-0.516 4.887,4.887 0 0 0 1.721,-0.489 0.954,0.954 0 0 0 0.438,-0.654 3.318,3.318 0 0 0 -0.375,-1.417 l 0.44,-0.305 4.78,6.526 -0.6,0.42 a 8.283,8.283 0 0 0 -4.89,-2.562 6.4,6.4 0 0 0 -4.662,0.988 4.1,4.1 0 0 0 -1.816,2.449 2.968,2.968 0 0 0 0.408,2.453 2.72,2.72 0 0 0 1.126,0.961 6.106,6.106 0 0 0 2.317,0.417 37.607,37.607 0 0 0 4.383,-0.5 q 4.691,-0.711 6.974,-0.032 a 6.7,6.7 0 0 1 3.637,2.659 6.882,6.882 0 0 1 1.041,5.651 8.525,8.525 0 0 1 -3.69,5.237 9.641,9.641 0 0 1 -1.913,1.046 16.386,16.386 0 0 1 -2.6,0.741 3.9,3.9 0 0 0 -1.366,0.513 1.76,1.76 0 0 0 -0.6,0.856 2.5,2.5 0 0 0 -0.068,1.376 l -0.543,0.38 z m 22.917,-6.9 0.6,-0.543 a 3.344,3.344 0 0 0 1,-1.422 1.636,1.636 0 0 0 -0.049,-1.118 7.383,7.383 0 0 0 -1.374,-1.8 l -10.75,-11.8 a 7.931,7.931 0 0 0 -1.712,-1.586 1.783,1.783 0 0 0 -1.136,-0.067 3.219,3.219 0 0 0 -1.433,0.833 l -0.6,0.542 -0.445,-0.49 9.381,-8.543 0.446,0.489 -0.6,0.543 a 3.332,3.332 0 0 0 -1,1.422 1.722,1.722 0 0 0 0.035,1.129 7.4,7.4 0 0 0 1.374,1.8 l 10.75,11.8 a 7.606,7.606 0 0 0 1.718,1.582 1.84,1.84 0 0 0 1.143,0.06 3.234,3.234 0 0 0 1.433,-0.832 l 0.594,-0.543 0.446,0.49 -9.381,8.544 z m 14.23,-13.238 a 5.591,5.591 0 0 0 1.2,-1.963 1.828,1.828 0 0 0 -0.1,-1.167 7.4,7.4 0 0 0 -1.757,-1.751 l -12.188,-9.973 a 7.509,7.509 0 0 0 -2.07,-1.383 1.765,1.765 0 0 0 -1.17,0.143 5.692,5.692 0 0 0 -1.674,1.565 l -0.513,-0.419 6.7,-8.186 q 3.309,-4.042 6.188,-4.624 a 5.782,5.782 0 0 1 5.04,1.188 5.94,5.94 0 0 1 2.2,3.7 7.457,7.457 0 0 1 -0.789,4.581 27.725,27.725 0 0 1 -3.384,4.815 l 5.207,4.263 a 7.564,7.564 0 0 0 2.07,1.383 1.761,1.761 0 0 0 1.174,-0.15 5.7,5.7 0 0 0 1.669,-1.558 l 0.513,0.419 -7.809,9.543 z m -7.841,-23.5 a 4.621,4.621 0 0 0 -3.2,1.933 l -0.465,0.569 8.116,6.642 q 0.4,-0.435 0.593,-0.669 a 4.319,4.319 0 0 0 1.128,-3.426 7.448,7.448 0 0 0 -5.939,-5.057 q -0.118,-0.008 -0.232,0 z m 24.128,2.849 a 5.56,5.56 0 0 0 0.862,-2.135 1.81,1.81 0 0 0 -0.288,-1.135 7.391,7.391 0 0 0 -2.022,-1.439 l -13.664,-7.828 a 7.506,7.506 0 0 0 -2.269,-1.024 1.764,1.764 0 0 0 -1.124,0.33 5.733,5.733 0 0 0 -1.4,1.822 l -0.573,-0.33 5.259,-9.176 q 2.6,-4.534 5.341,-5.582 a 5.783,5.783 0 0 1 5.168,0.342 5.945,5.945 0 0 1 2.78,3.283 7.468,7.468 0 0 1 -0.024,4.648 27.6,27.6 0 0 1 -2.545,5.306 l 5.838,3.346 a 7.465,7.465 0 0 0 2.271,1.023 1.763,1.763 0 0 0 1.133,-0.34 5.736,5.736 0 0 0 1.389,-1.814 l 0.576,0.329 -6.132,10.7 z M 300.9,245.73 a 4.62,4.62 0 0 0 -2.841,2.437 l -0.366,0.637 9.1,5.214 c 0.219,-0.331 0.376,-0.583 0.477,-0.759 a 4.319,4.319 0 0 0 0.547,-3.565 5.826,5.826 0 0 0 -2.9,-3.023 6.633,6.633 0 0 0 -3.211,-1.033 3.457,3.457 0 0 0 -0.806,0.092 z m 23.741,-0.489 0.3,-0.748 a 3.34,3.34 0 0 0 0.289,-1.716 1.642,1.642 0 0 0 -0.528,-0.986 7.387,7.387 0 0 0 -2.019,-1.027 l -14.8,-5.975 a 7.988,7.988 0 0 0 -2.232,-0.688 1.791,1.791 0 0 0 -1.052,0.434 3.2,3.2 0 0 0 -0.93,1.371 l -0.3,0.748 -0.614,-0.249 4.75,-11.766 0.614,0.248 -0.3,0.746 a 3.352,3.352 0 0 0 -0.29,1.717 1.721,1.721 0 0 0 0.523,1 7.36,7.36 0 0 0 2.017,1.028 l 14.8,5.974 a 7.573,7.573 0 0 0 2.234,0.68 1.837,1.837 0 0 0 1.056,-0.441 3.213,3.213 0 0 0 0.93,-1.372 l 0.3,-0.746 0.614,0.248 -4.75,11.766 z M 34.115,159.577 a 12.113,12.113 0 0 1 -7.96,-5.6 11.714,11.714 0 0 1 -1.282,-9.577 12.041,12.041 0 0 1 14.987,-9.946 12.949,12.949 0 0 1 7.315,4.45 q 3.734,4.53 2.274,10.9 -1.464,6.383 -6.59,8.88 a 12.434,12.434 0 0 1 -5.511,1.276 14.461,14.461 0 0 1 -3.233,-0.383 z m -2.606,-19.491 a 7,7 0 0 0 -3.8,1.468 5.377,5.377 0 0 0 -1.674,2.894 5.466,5.466 0 0 0 2.181,5.7 18.17,18.17 0 0 0 7.5,3.171 q 6.054,1.389 9.437,-0.075 a 4.977,4.977 0 0 0 2.976,-3.688 5.108,5.108 0 0 0 -0.185,-3.2 7.343,7.343 0 0 0 -3.019,-3.208 20.283,20.283 0 0 0 -6.2,-2.321 27.362,27.362 0 0 0 -5.887,-0.819 10.094,10.094 0 0 0 -1.33,0.078 z m 20.006,-3.794 0.325,-0.737 a 3.363,3.363 0 0 0 0.338,-1.707 1.623,1.623 0 0 0 -0.5,-1 7.385,7.385 0 0 0 -1.986,-1.086 l -14.618,-6.414 a 7.97,7.97 0 0 0 -2.208,-0.756 1.788,1.788 0 0 0 -1.066,0.4 3.193,3.193 0 0 0 -0.97,1.342 l -0.325,0.737 -0.605,-0.266 5.2,-11.847 0.607,0.266 -0.424,0.966 a 3.358,3.358 0 0 0 -0.34,1.707 1.711,1.711 0 0 0 0.492,1.018 7.37,7.37 0 0 0 1.984,1.085 l 14.159,6.213 a 7.783,7.783 0 0 0 2.257,0.756 1.427,1.427 0 0 0 1.034,-0.465 8.448,8.448 0 0 0 1.019,-1.917 l 0.813,-1.852 a 6.85,6.85 0 0 0 0.671,-3.223 6,6 0 0 0 -1.071,-2.9 17.355,17.355 0 0 0 -3.25,-3.37 l 0.295,-0.673 7.433,4.26 -8.658,19.73 z m 9.848,-21.469 0.421,-0.687 a 3.352,3.352 0 0 0 0.569,-1.645 1.629,1.629 0 0 0 -0.357,-1.059 7.343,7.343 0 0 0 -1.819,-1.348 l -13.6,-8.351 a 8.009,8.009 0 0 0 -2.087,-1.05 1.8,1.8 0 0 0 -1.11,0.254 3.2,3.2 0 0 0 -1.144,1.2 l -0.423,0.685 -0.563,-0.346 6.638,-10.813 0.563,0.347 -0.421,0.686 a 3.358,3.358 0 0 0 -0.569,1.645 1.7,1.7 0 0 0 0.347,1.075 7.378,7.378 0 0 0 1.819,1.348 l 13.6,8.349 a 7.669,7.669 0 0 0 2.09,1.043 1.853,1.853 0 0 0 1.116,-0.26 3.232,3.232 0 0 0 1.146,-1.2 l 0.419,-0.687 0.565,0.347 -6.638,10.814 z M 57.071,88.015 a 24.486,24.486 0 0 0 -4.429,-1.107 2.885,2.885 0 0 0 -1.83,0.973 L 50.306,87.454 57.814,78.568 58.32,79 58.067,79.3 a 4.078,4.078 0 0 0 -1.086,1.893 0.883,0.883 0 0 0 0.335,0.823 2.515,2.515 0 0 0 0.673,0.381 q 0.428,0.175 2.422,0.781 l 12.565,3.845 -5.119,-10.6 Q 66.92,74.5 66.54,73.924 a 4.069,4.069 0 0 0 -0.733,-0.877 1.614,1.614 0 0 0 -0.909,-0.393 1.768,1.768 0 0 0 -1.023,0.238 5.673,5.673 0 0 0 -1.549,1.363 l -0.5,-0.428 5.139,-6.084 0.5,0.428 a 3.941,3.941 0 0 0 -0.444,2.718 21.673,21.673 0 0 0 1.769,4.422 l 8.767,18.35 -0.38,0.45 z m 28.948,-5.865 0.626,-0.507 a 3.356,3.356 0 0 0 1.083,-1.361 1.628,1.628 0 0 0 0.016,-1.118 7.423,7.423 0 0 0 -1.267,-1.876 l -10.05,-12.4 a 12.811,12.811 0 0 0 -1.343,-1.516 1.724,1.724 0 0 0 -1.122,-0.334 3.089,3.089 0 0 0 -1.763,0.783 l -0.625,0.508 -0.417,-0.515 15.783,-12.791 4.517,5.577 -0.528,0.429 a 8.757,8.757 0 0 0 -3.51,-2.016 5.414,5.414 0 0 0 -3.123,0.367 14.363,14.363 0 0 0 -3.123,2.114 l -1.947,1.576 6.22,7.674 0.375,-0.3 a 3.827,3.827 0 0 0 1.687,-3.234 8.932,8.932 0 0 0 -1.663,-4.156 l 0.528,-0.428 8,9.872 -0.529,0.429 A 9.485,9.485 0 0 0 91,66.85 3.871,3.871 0 0 0 88.635,66.475 6.064,6.064 0 0 0 86.289,67.787 l 4.3,5.31 a 9.817,9.817 0 0 0 1.675,1.8 1.472,1.472 0 0 0 0.956,0.17 3,3 0 0 0 1.348,-0.724 l 1.126,-0.912 a 8.728,8.728 0 0 0 3.243,-4.655 8.777,8.777 0 0 0 -0.733,-5.58 l 0.515,-0.417 4.008,6.68 -16.3,13.2 z m 161.7,-18.412 0.33,-0.574 0.682,0.393 a 3.3,3.3 0 0 0 1.663,0.521 1.707,1.707 0 0 0 1.063,-0.38 7.326,7.326 0 0 0 1.293,-1.857 l 3.745,-6.517 -7.433,-4.27 -3.743,6.517 a 7.585,7.585 0 0 0 -0.98,2.12 1.837,1.837 0 0 0 0.292,1.106 3.214,3.214 0 0 0 1.231,1.111 l 0.7,0.4 -0.33,0.575 -11,-6.322 0.33,-0.574 0.7,0.4 a 3.349,3.349 0 0 0 1.66,0.523 1.642,1.642 0 0 0 1.049,-0.388 7.346,7.346 0 0 0 1.294,-1.858 l 7.952,-13.841 a 7.973,7.973 0 0 0 0.989,-2.116 1.8,1.8 0 0 0 -0.285,-1.1 3.227,3.227 0 0 0 -1.23,-1.109 l -0.7,-0.4 0.33,-0.574 11,6.322 -0.33,0.572 -0.7,-0.4 a 3.36,3.36 0 0 0 -1.661,-0.522 1.708,1.708 0 0 0 -1.064,0.38 7.382,7.382 0 0 0 -1.294,1.857 l -3.422,5.958 7.432,4.271 3.425,-5.962 a 7.94,7.94 0 0 0 0.988,-2.116 1.789,1.789 0 0 0 -0.293,-1.106 3.245,3.245 0 0 0 -1.238,-1.115 l -0.682,-0.393 0.33,-0.574 10.988,6.312 -0.33,0.574 -0.683,-0.392 a 3.291,3.291 0 0 0 -1.661,-0.522 1.713,1.713 0 0 0 -1.064,0.38 7.408,7.408 0 0 0 -1.294,1.855 l -7.952,13.842 a 7.99,7.99 0 0 0 -0.988,2.116 1.778,1.778 0 0 0 0.294,1.106 3.263,3.263 0 0 0 1.238,1.115 l 0.683,0.392 -0.33,0.574 z M 111.866,62.651 a 5.569,5.569 0 0 0 1.928,-1.258 1.826,1.826 0 0 0 0.413,-1.1 7.427,7.427 0 0 0 -0.839,-2.336 L 106.63,43.726 a 7.534,7.534 0 0 0 -1.279,-2.136 1.765,1.765 0 0 0 -1.117,-0.372 5.728,5.728 0 0 0 -2.184,0.7 l -0.284,-0.6 10.514,-4.978 a 16.5,16.5 0 0 1 5.655,-1.855 6.151,6.151 0 0 1 3.423,0.833 5.5,5.5 0 0 1 2.25,2.411 4.469,4.469 0 0 1 0.187,3.366 9.111,9.111 0 0 1 -3.114,3.878 12.421,12.421 0 0 1 5.218,-0.312 5.192,5.192 0 0 1 3.619,2.961 5.587,5.587 0 0 1 -0.052,5.034 q -1.514,3.112 -6.175,5.319 l -11.144,5.275 z m 7.262,-15.358 a 11.8,11.8 0 0 0 -3.942,1.293 l 3.331,7.036 0.366,0.816 a 1.734,1.734 0 0 0 2.6,0.929 5.578,5.578 0 0 0 2.114,-1.7 4.34,4.34 0 0 0 0.885,-2.459 5.631,5.631 0 0 0 -0.57,-2.709 5.953,5.953 0 0 0 -2.017,-2.422 4.278,4.278 0 0 0 -2.461,-0.791 q -0.153,-0.004 -0.306,0.006 z m -4.977,-9.76 a 9.637,9.637 0 0 0 -3.65,1.153 l 4.088,8.637 a 9.231,9.231 0 0 0 3.144,-2.122 4.268,4.268 0 0 0 0.984,-2.248 5.785,5.785 0 0 0 -2.255,-4.784 4,4 0 0 0 -2.233,-0.638 z m 109.66,15.82 a 14.83,14.83 0 0 1 -6.05,-3.663 11.008,11.008 0 0 1 -3,-5.718 12.483,12.483 0 0 1 0.415,-6.408 13.243,13.243 0 0 1 9.991,-8.7 13.263,13.263 0 0 1 6.764,0.45 14.862,14.862 0 0 1 4.776,2.764 8.274,8.274 0 0 0 1.781,1.275 1.351,1.351 0 0 0 1.075,-0.084 2.28,2.28 0 0 0 0.942,-1.091 l 0.661,0.221 -2.666,7.978 -0.661,-0.221 a 8.966,8.966 0 0 0 -1.185,-5.716 7.492,7.492 0 0 0 -4.06,-3.206 7.183,7.183 0 0 0 -4.369,-0.082 7.6,7.6 0 0 0 -3.713,2.363 15.473,15.473 0 0 0 -2.977,5.345 20.1,20.1 0 0 0 -1.1,5.887 7.882,7.882 0 0 0 1.165,4.653 7.174,7.174 0 0 0 3.877,2.739 8.879,8.879 0 0 0 4.3,0.38 14.523,14.523 0 0 0 4.905,-2 l -0.664,1.986 a 13.239,13.239 0 0 1 -5.01,1.581 q -0.436,0.038 -0.886,0.038 a 13.653,13.653 0 0 1 -4.311,-0.771 z M 132.88,52.63 a 5.61,5.61 0 0 0 2.12,-0.892 1.834,1.834 0 0 0 0.6,-1.005 7.443,7.443 0 0 0 -0.4,-2.449 L 131.133,33.07 a 7.51,7.51 0 0 0 -0.874,-2.332 1.763,1.763 0 0 0 -1.03,-0.566 5.7,5.7 0 0 0 -2.275,0.292 l -0.171,-0.64 10.892,-2.911 a 24.608,24.608 0 0 1 6.381,-1.075 6.491,6.491 0 0 1 3.8,1.31 6.024,6.024 0 0 1 2.236,3.375 5.725,5.725 0 0 1 -0.721,4.786 7.961,7.961 0 0 1 -2.908,2.5 l 7.758,6.429 a 12.323,12.323 0 0 0 2.086,1.5 3.037,3.037 0 0 0 1.8,0.149 l 0.171,0.64 -7.385,1.973 -10.409,-8.666 -1.54,0.411 1.757,6.57 a 7.486,7.486 0 0 0 0.873,2.332 1.765,1.765 0 0 0 1.032,0.567 5.719,5.719 0 0 0 2.273,-0.293 l 0.171,0.64 -12,3.207 z m 4.841,-24.375 -1.851,0.494 2.745,10.27 0.986,-0.263 a 11.425,11.425 0 0 0 3.479,-1.4 3.71,3.71 0 0 0 1.451,-2.092 6.032,6.032 0 0 0 -0.119,-3.183 5.661,5.661 0 0 0 -2.312,-3.623 4.162,4.162 0 0 0 -2.157,-0.528 8.684,8.684 0 0 0 -2.222,0.325 z M 206.835,48.438 193.317,26.2 191.225,41.483 a 3.4,3.4 0 0 0 0.564,2.931 3.5,3.5 0 0 0 2.072,1.024 l 0.567,0.078 -0.089,0.656 -8.528,-1.172 0.091,-0.656 a 3.9,3.9 0 0 0 2.876,-0.437 3.85,3.85 0 0 0 1.152,-2.607 l 2.322,-16.968 -0.426,-0.708 a 4.721,4.721 0 0 0 -1.176,-1.443 4.077,4.077 0 0 0 -1.638,-0.568 l 0.088,-0.656 8.529,1.168 9.821,16.534 1.414,-10.336 a 4.93,4.93 0 0 0 -0.22,-3.009 3.459,3.459 0 0 0 -2.719,-1.385 l 0.09,-0.656 7.943,1.087 -0.089,0.656 a 6.129,6.129 0 0 0 -2.116,0.225 2.043,2.043 0 0 0 -0.954,0.9 6.937,6.937 0 0 0 -0.622,2.363 l -2.742,20.017 z m -47.922,-2.613 a 3.618,3.618 0 0 0 2.08,-1.209 14.411,14.411 0 0 0 1.854,-3.776 L 170.36,21 l 0.339,-0.021 9.92,19.343 a 12.136,12.136 0 0 0 2.265,3.433 2.813,2.813 0 0 0 1.753,0.54 l 0.04,0.662 -11.718,0.7 -0.04,-0.662 0.482,-0.029 a 3.678,3.678 0 0 0 1.959,-0.511 0.954,0.954 0 0 0 0.345,-0.844 2.206,2.206 0 0 0 -0.146,-0.656 q -0.045,-0.158 -0.616,-1.307 l -1.466,-2.948 -8.556,0.509 -0.879,2.419 a 5.245,5.245 0 0 0 -0.384,1.976 1.622,1.622 0 0 0 0.91,1.452 6.941,6.941 0 0 0 2.4,0.286 l 0.041,0.661 -8.058,0.481 z m 6.553,-7.974 7.324,-0.437 -4.106,-8.127 z"
     fill="#ffffff" />
</svg>
