<?xml version="1.0" encoding="UTF-8" standalone="no"?>
<svg
   viewBox="0 0 1280 216.033"
   version="1.1"
   id="svg1"
   sodipodi:docname="samsClub.svg"
   inkscape:version="1.3.2 (091e20e, 2023-11-25, custom)"
   xmlns:inkscape="http://www.inkscape.org/namespaces/inkscape"
   xmlns:sodipodi="http://sodipodi.sourceforge.net/DTD/sodipodi-0.dtd"
   xmlns="http://www.w3.org/2000/svg"
   xmlns:svg="http://www.w3.org/2000/svg">
  <defs
     id="defs1" />
  <sodipodi:namedview
     id="namedview1"
     pagecolor="#ffffff"
     bordercolor="#000000"
     borderopacity="0.25"
     inkscape:showpageshadow="2"
     inkscape:pageopacity="0.0"
     inkscape:pagecheckerboard="0"
     inkscape:deskcolor="#d1d1d1"
     inkscape:zoom="1.2140625"
     inkscape:cx="640"
     inkscape:cy="108.31403"
     inkscape:window-width="2256"
     inkscape:window-height="1398"
     inkscape:window-x="-11"
     inkscape:window-y="-11"
     inkscape:window-maximized="1"
     inkscape:current-layer="svg1" />
  <path
     fill="#0067a0"
     d="M1145.38 16.5c5.002 5.036 5.002 13.164 0 18.2l-72.932 73.327 72.944 73.29c5.012 5.046 5.012 13.192 0 18.238L1129 216.033l-98.792-99.262c-4.8-4.835-4.8-12.636 0-17.471l98.76-99.29zm131.225 83.264c4.527 4.558 4.527 11.915 0 16.473l-99.251 99.79-17.143-17.223c-4.6-4.633-4.6-12.109 0-16.742l73.662-74.056-73.035-73.387c-4.958-4.993-4.958-13.05 0-18.044L1177.32 0Zm-349.483 58.82c20.794 0 35.052-16.672 35.052-38.75 0-21.841-14.258-38.514-35.052-38.514-20.56 0-34.813 17.143-34.813 38.983 0 21.604 14.253 38.282 34.813 38.282zm5.844 22.08c-17.995 0-33.182-8.928-41.127-26.07v24.195h-23.364V18.85l23.364-4.699v71.161c7.944-17.147 23.132-26.07 41.127-26.07 30.137 0 54.208 23.251 54.208 60.83 0 37.342-24.066 60.592-54.208 60.592zm-185.67-50.499V61.121h23.364v70.924c0 15.5 9.814 26.07 26.173 26.07 16.353 0 26.172-10.564 26.172-26.07V61.12h23.364v69.044c0 32.179-19.864 50.26-49.536 50.26-29.678 0-49.537-18.081-49.537-50.26zm-16.38 50.26c-24.066.94-37.385-11.741-37.385-40.155V18.85l23.364-4.699v126.12c0 11.272 6.076 16.435 14.485 16.435h6.076v23.018c-2.147.466-4.338.701-6.535.702zM577.84 119.834c0-37.342 25.708-60.592 61.456-60.592 16.824 0 31.779 5.4 43.228 16.91l-14.258 17.612a40.397 40.397 0 0 0-28.738-12.444c-21.495 0-36.687 12.914-36.687 38.281 0 25.368 15.192 38.751 36.687 38.751 9.344 0 19.865-3.759 28.976-13.15l14.253 17.38a59.612 59.612 0 0 1-43.46 17.844c-35.522 0-61.457-23.251-61.457-60.592zm-138.785 48.148 10.515-21.371c7.713 5.633 21.496 11.974 32.011 11.974 13.086 0 18.228-6.341 18.228-13.151.232-7.983-6.308-11.04-20.097-15.5-23.131-7.044-36.218-15.264-36.218-36.872 0-19.73 14.96-33.82 42.062-33.82a64.193 64.193 0 0 1 37.152 11.741L512.193 90.48c-6.076-3.759-16.36-9.397-27.809-9.397-10.045 0-16.121 3.996-16.121 11.741 0 6.34 4.44 10.57 19.162 15.03 25.006 7.519 37.384 16.91 37.384 36.64 0 22.31-17.99 35.932-42.99 35.932-17.067 0-33.415-5.634-42.764-12.444zM422.21 27.302h25.232L432.725 73.57h-19.394Zm-87.882 151.25h-23.37v-71.4c0-14.798-7.712-26.07-23.364-26.07-17.061 0-28.975 15.031-28.975 34.29v63.18h-23.37V61.121h23.37v20.9c7.01-14.798 19.859-23.013 34.813-23.013 15.663 0 28.511 8.22 35.516 22.306 9.819-15.5 22.9-22.306 38.562-22.306 24.53 0 42.52 18.552 42.52 48.376v71.166h-23.363v-71.399c0-14.798-7.712-26.07-23.37-26.07-17.055 0-28.97 15.031-28.97 34.29zM154.685 81.32c-20.793 0-35.051 16.673-35.051 38.751 0 21.841 14.258 38.514 35.051 38.514 20.566 0 34.82-17.143 34.82-38.984 0-21.603-14.259-38.28-34.82-38.28zm35.284 73.273c-7.94 17.148-23.132 26.07-41.122 26.07-30.142 0-54.214-23.25-54.214-60.83 0-37.34 24.072-60.591 54.214-60.591 17.99 0 33.177 8.922 41.122 26.07v-24.19h23.37v117.424h-23.37zM.005 167.982l10.516-21.371c7.712 5.633 21.495 11.974 32.01 11.974 13.087 0 18.228-6.341 18.228-13.151.233-7.983-6.308-11.04-20.09-15.5-23.143-7.044-36.23-15.264-36.23-36.872 0-19.73 14.96-33.82 42.062-33.82a64.193 64.193 0 0 1 37.152 11.741L73.138 90.48c-6.076-3.759-16.36-9.397-27.809-9.397-10.045 0-16.121 3.996-16.121 11.741 0 6.34 4.44 10.57 19.162 15.03 25.006 7.519 37.384 16.91 37.384 36.64 0 22.31-17.99 35.932-42.99 35.932-17.061 0-33.415-5.634-42.764-12.444Z"
     id="path1"
     style="fill:#ffffff;fill-opacity:1" />
</svg>
