<?xml version="1.0" encoding="UTF-8" standalone="no"?>
<svg
   width="182.961"
   height="77.696"
   viewBox="0 0 182.961 77.696"
   version="1.1"
   id="svg26"
   sodipodi:docname="tegra.svg"
   inkscape:version="1.3.2 (091e20e, 2023-11-25, custom)"
   xmlns:inkscape="http://www.inkscape.org/namespaces/inkscape"
   xmlns:sodipodi="http://sodipodi.sourceforge.net/DTD/sodipodi-0.dtd"
   xmlns="http://www.w3.org/2000/svg"
   xmlns:svg="http://www.w3.org/2000/svg">
  <sodipodi:namedview
     id="namedview26"
     pagecolor="#ffffff"
     bordercolor="#000000"
     borderopacity="0.25"
     inkscape:showpageshadow="2"
     inkscape:pageopacity="0.0"
     inkscape:pagecheckerboard="0"
     inkscape:deskcolor="#d1d1d1"
     inkscape:zoom="8.4936135"
     inkscape:cx="78.294121"
     inkscape:cy="34.673111"
     inkscape:window-width="2256"
     inkscape:window-height="1398"
     inkscape:window-x="-11"
     inkscape:window-y="-11"
     inkscape:window-maximized="1"
     inkscape:current-layer="g26" />
  <defs
     id="defs1">
    <style
       id="style1">.a{fill:#939598;}.b{fill:#bcbec0;}.c{fill:#dcddde;}.d{fill:#d01f3c;}</style>
  </defs>
  <g
     transform="translate(0 0)"
     id="g26">
    <path
       d="M55.506,59.1h2.506v9.273H56.258V60.729h0l-4.887,7.644H49.742L44.98,60.854h0v7.519H43.1V59.1h2.632l4.887,7.77Z"
       transform="translate(6.4 9.197)"
       id="path1"
       style="fill:#ffffff;fill-opacity:1" />
    <rect
       class="a"
       width="7.519"
       height="7.519"
       transform="translate(39.474 19.925)"
       id="rect1"
       style="fill:#ffffff;fill-opacity:1" />
    <rect
       class="a"
       width="7.519"
       height="7.519"
       transform="translate(29.575 19.925)"
       id="rect2"
       style="fill:#ffffff;fill-opacity:1" />
    <rect
       class="a"
       width="7.519"
       height="7.519"
       transform="translate(29.575 39.725)"
       id="rect3"
       style="fill:#ffffff;fill-opacity:1" />
    <rect
       class="a"
       width="7.519"
       height="7.519"
       transform="translate(29.575 29.825)"
       id="rect4"
       style="fill:#ffffff;fill-opacity:1" />
    <rect
       class="a"
       width="7.519"
       height="7.519"
       transform="translate(19.675 29.825)"
       id="rect5"
       style="fill:#ffffff;fill-opacity:1" />
    <rect
       class="b"
       width="7.519"
       height="7.519"
       transform="translate(49.374 19.925)"
       id="rect6"
       style="fill:#ffffff;fill-opacity:1" />
    <rect
       class="b"
       width="7.519"
       height="7.519"
       transform="translate(19.549 19.925)"
       id="rect7"
       style="fill:#ffffff;fill-opacity:1" />
    <rect
       class="b"
       width="7.519"
       height="7.519"
       transform="translate(29.575 49.625)"
       id="rect8"
       style="fill:#ffffff;fill-opacity:1" />
    <rect
       class="b"
       width="7.519"
       height="7.519"
       transform="translate(29.575 10.025)"
       id="rect9"
       style="fill:#ffffff;fill-opacity:1" />
    <rect
       class="b"
       width="7.519"
       height="7.519"
       transform="translate(19.675 39.725)"
       id="rect10"
       style="fill:#ffffff;fill-opacity:1" />
    <rect
       class="b"
       width="7.519"
       height="7.519"
       transform="translate(9.9 29.825)"
       id="rect11"
       style="fill:#ffffff;fill-opacity:1" />
    <rect
       class="b"
       width="7.519"
       height="7.519"
       transform="translate(39.474 10.025)"
       id="rect12"
       style="fill:#ffffff;fill-opacity:1" />
    <rect
       class="c"
       width="7.519"
       height="7.519"
       transform="translate(59.274 19.925)"
       id="rect13"
       style="fill:#ffffff;fill-opacity:1" />
    <rect
       class="c"
       width="7.519"
       height="7.519"
       transform="translate(29.575 59.525)"
       id="rect14"
       style="fill:#ffffff;fill-opacity:1" />
    <rect
       class="c"
       width="7.519"
       height="7.519"
       transform="translate(0 29.825)"
       id="rect15"
       style="fill:#ffffff;fill-opacity:1" />
    <rect
       class="c"
       width="7.519"
       height="7.519"
       transform="translate(39.474)"
       id="rect16"
       style="fill:#ffffff;fill-opacity:1" />
    <path
       class="d"
       d="M35.1,30.9H60.79v4.386H50.639V59.1H45.125V35.286H35.1Z"
       transform="translate(4.374 2.058)"
       id="path16"
       style="fill:#ffffff;fill-opacity:1" />
    <path
       class="d"
       d="M57.3,30.9H80.107v4.386H62.814V42.8h16.04v4.01H62.814v8.02h17.67V59.1H57.3Z"
       transform="translate(9.995 2.058)"
       id="path17"
       style="fill:#ffffff;fill-opacity:1" />
    <g
       transform="translate(75.565 32.331)"
       id="g25"
       style="fill:#ffffff;fill-opacity:1">
      <path
         class="d"
         d="M106.373,59.223h-4.386V55.839a12.014,12.014,0,0,1-9.524,4.01c-9.524,0-15.163-6.391-15.163-14.537S82.939,30.4,92.463,30.4c6.892,0,12.782,3.384,13.659,9.775h-5.389c-.5-3.759-4.135-5.639-8.146-5.639-6.767,0-9.649,5.389-9.649,10.9s2.882,10.527,9.649,10.527c5.639.125,8.772-2.632,8.9-7.394h-8.4V44.811h13.534V59.223Z"
         transform="translate(-60.508 -30.4)"
         id="path18"
         style="fill:#ffffff;fill-opacity:1" />
      <path
         class="d"
         d="M103.3,30.9h15.163c6.892,0,10.527,2.882,10.527,7.77a6.918,6.918,0,0,1-5.263,7.143v.125c1.88.251,4.762,1.128,4.762,5.639,0,3.258.5,6.391,1.754,7.519h-6.015a7.1,7.1,0,0,1-.877-4.261c0-5.263-1.253-7.143-6.266-7.143h-8.146V59.1h-5.514V30.9Zm5.639,13.033h9.148c3.509,0,5.389-1.5,5.389-4.511,0-3.634-2.632-4.386-5.514-4.386h-9.023v8.9Z"
         transform="translate(-53.926 -30.273)"
         id="path19"
         style="fill:#ffffff;fill-opacity:1" />
      <path
         class="d"
         d="M137.581,30.9h5.89l12.281,28.2h-6.015l-3.008-7.519H134.072L131.065,59.1H125.3Zm-2.005,17.294h9.649l-4.762-12.281h-.125Z"
         transform="translate(-48.356 -30.273)"
         id="path20"
         style="fill:#ffffff;fill-opacity:1" />
      <path
         d="M63.9,59.1h9.9v1.378H65.654v2.506h7.895v1.253H65.654V67.12h8.271v1.253H63.9Z"
         transform="translate(-63.9 -23.134)"
         id="path21"
         style="fill:#ffffff;fill-opacity:1" />
      <path
         d="M80.6,59.1h6.266c3.759,0,5.389,1.88,5.389,4.511s-1.5,4.762-5.263,4.762H80.6V59.1Zm6.266,8.02c3.008,0,3.509-1.754,3.509-3.384s-.752-3.258-3.885-3.258H82.354V67.12Z"
         transform="translate(-59.672 -23.134)"
         id="path22"
         style="fill:#ffffff;fill-opacity:1" />
      <g
         transform="translate(42.858 35.966)"
         id="g22"
         style="fill:#ffffff;fill-opacity:1">
        <rect
           width="1.88"
           height="9.273"
           id="rect22"
           style="fill:#ffffff;fill-opacity:1" />
      </g>
      <path
         d="M118.577,62.559c-.251-1.253-1.629-2.381-4.261-2.381-2.882,0-4.762,1.253-4.762,3.759,0,1.754,1.253,3.509,4.637,3.509,2.13,0,3.759-.752,4.386-2.632h1.88c-.251,2.005-2.632,3.759-6.14,3.759-3.133,0-6.516-1.253-6.516-4.887,0-2.757,2.256-4.887,6.516-4.887,2.506,0,5.89.752,6.14,3.634h-1.88Z"
         transform="translate(-52.786 -23.21)"
         id="path23"
         style="fill:#ffffff;fill-opacity:1" />
      <path
         d="M134.149,65.742h-6.14l-1.5,2.632H124.5l5.639-9.273h2.13l5.639,9.273h-2.13Zm-3.008-5.389-2.256,4.01h4.637Z"
         transform="translate(-48.559 -23.134)"
         id="path24"
         style="fill:#ffffff;fill-opacity:1" />
      <path
         d="M142,59.1h1.88v8.02H151.4v1.253H142Z"
         transform="translate(-44.128 -23.134)"
         id="path25"
         style="fill:#ffffff;fill-opacity:1" />
    </g>
  </g>
</svg>
