<?xml version="1.0" encoding="UTF-8" standalone="no"?>
<!-- Generator: Adobe Illustrator 19.2.1, SVG Export Plug-In . SVG Version: 6.00 Build 0)  -->

<svg
   version="1.1"
   id="Layer_1"
   x="0px"
   y="0px"
   viewBox="0 0 324 93.6"
   style="enable-background:new 0 0 324 93.6;"
   xml:space="preserve"
   sodipodi:docname="ui.svg"
   inkscape:version="1.3.2 (091e20e, 2023-11-25, custom)"
   xmlns:inkscape="http://www.inkscape.org/namespaces/inkscape"
   xmlns:x="adobe:ns:meta/"
   xmlns:sodipodi="http://sodipodi.sourceforge.net/DTD/sodipodi-0.dtd"
   xmlns="http://www.w3.org/2000/svg"
   xmlns:svg="http://www.w3.org/2000/svg"
   xmlns:rdf="http://www.w3.org/1999/02/22-rdf-syntax-ns#"
   xmlns:dc="http://purl.org/dc/elements/1.1/"><defs
   id="defs11" /><sodipodi:namedview
   id="namedview11"
   pagecolor="#ffffff"
   bordercolor="#000000"
   borderopacity="0.25"
   inkscape:showpageshadow="2"
   inkscape:pageopacity="0.0"
   inkscape:pagecheckerboard="0"
   inkscape:deskcolor="#d1d1d1"
   inkscape:zoom="4.7962963"
   inkscape:cx="162"
   inkscape:cy="46.80695"
   inkscape:window-width="2256"
   inkscape:window-height="1398"
   inkscape:window-x="-11"
   inkscape:window-y="-11"
   inkscape:window-maximized="1"
   inkscape:current-layer="Layer_1" />
<style
   type="text/css"
   id="style1">
	.st0{fill:#81BD41;}
	.st1{fill:#78777A;}
	.st2{fill:#CAE0AC;}
</style>
<title
   id="title1">UnitedInitiators_Logo_Cmyk</title>
<metadata
   id="metadata1"><?xpacket begin="﻿" id="W5M0MpCehiHzreSzNTczkc9d"?>
<x:xmpmeta
   x:xmptk="Adobe XMP Core 5.6-c111 79.158366, 2015/09/25-01:12:00        ">
   <rdf:RDF>
      <rdf:Description
   rdf:about="">
         <dc:title>
            <rdf:Alt>
               <rdf:li
   xml:lang="x-default">UnitedInitiators_Logo_Cmyk</rdf:li>
            </rdf:Alt>
         </dc:title>
      </rdf:Description>
   </rdf:RDF>
</x:xmpmeta>
                                                                                                    
                                                                                                    
                                                                                                    
                                                                                                    
                                                                                                    
                                                                                                    
                                                                                                    
                                                                                                    
                                                                                                    
                                                                                                    
                                                                                                    
                                                                                                    
                                                                                                    
                                                                                                    
                                                                                                    
                                                                                                    
                                                                                                    
                                                                                                    
                                                                                                    
                                                                                                    
                           
<?xpacket end="w"?></metadata>
<path
   class="st0"
   d="M23.4,67.7v15.1c0,3.3-0.9,5.7-2.6,7.4c-1.7,1.6-4.3,2.4-7.8,2.4c-3.5,0-6.2-0.8-7.9-2.4  c-1.7-1.6-2.6-4.1-2.6-7.4V67.7h5.1V82c-0.1,1.6,0.3,3.2,1.3,4.5c1,1.1,2.5,1.6,4,1.5c1.5,0.1,3-0.5,4-1.5c1-1.3,1.5-2.9,1.4-4.5  V67.7H23.4L23.4,67.7z"
   id="path1"
   style="fill:#ffffff;fill-opacity:1" />
<path
   class="st0"
   d="M28.7,91.9V67.7h5.4l10.7,14.1c0.4,0.5,0.7,1.1,1,1.7c0.4,0.7,0.8,1.6,1.2,2.6c-0.1-0.7-0.2-1.4-0.3-2.1  s-0.1-1.6-0.1-2.7V67.7h5v24.2h-5.1l-11-14.4c-0.4-0.5-0.7-1.1-1-1.7c-0.4-0.7-0.8-1.6-1.2-2.6c0.1,0.7,0.2,1.4,0.3,2.1  c0.1,0.7,0.1,1.6,0.1,2.7v13.8L28.7,91.9L28.7,91.9z"
   id="path2"
   style="fill:#ffffff;fill-opacity:1" />
<rect
   x="57.1"
   y="67.7"
   class="st0"
   width="5.2"
   height="24.2"
   id="rect2"
   style="fill:#ffffff;fill-opacity:1" />
<polygon
   class="st0"
   points="76.9,72.1 76.9,91.9 71.7,91.9 71.7,72.1 65.8,72.1 65.8,67.7 82.8,67.7 82.8,72.1 "
   id="polygon2"
   style="fill:#ffffff;fill-opacity:1" />
<polygon
   class="st0"
   points="86.2,91.9 86.2,67.7 100.5,67.7 100.5,72.1 91.4,72.1 91.4,77.1 100.5,77.1 100.5,81.5 91.4,81.5   91.4,87.5 100.5,87.5 100.5,91.9 "
   id="polygon3"
   style="fill:#ffffff;fill-opacity:1" />
<path
   class="st0"
   d="M110.7,87.6h2.9c2.7,0,4.7-0.6,5.9-1.8c1.2-1.2,1.9-3.2,1.9-5.9c0-2.7-0.6-4.6-1.9-5.9  c-1.2-1.2-3.2-1.9-5.9-1.9h-2.9V87.6z M105.5,91.9V67.7h6.6c2.1-0.1,4.1,0.1,6.2,0.6c1.4,0.3,2.8,0.9,4,1.8c1.4,1.1,2.6,2.5,3.3,4.1  c1.5,3.6,1.5,7.7,0,11.4c-0.8,1.6-1.9,3.1-3.4,4.1c-1.1,0.8-2.4,1.4-3.7,1.7c-2,0.4-3.9,0.6-5.9,0.5L105.5,91.9L105.5,91.9z"
   id="path3"
   style="fill:#ffffff;fill-opacity:1" />
<rect
   x="138.2"
   y="67.7"
   class="st1"
   width="5.2"
   height="24.2"
   id="rect3"
   style="fill:#ffffff;fill-opacity:1" />
<path
   class="st1"
   d="M148.9,91.9V67.7h5.4L165,81.8c0.4,0.5,0.7,1.1,1,1.7c0.4,0.7,0.8,1.6,1.1,2.6c-0.1-0.7-0.2-1.4-0.3-2.1  s-0.1-1.6-0.1-2.7V67.7h5v24.2h-5.1l-11-14.4c-0.4-0.5-0.7-1.1-1-1.7c-0.4-0.7-0.8-1.6-1.2-2.6c0.1,0.7,0.2,1.4,0.3,2.1  s0.1,1.6,0.1,2.7v13.8L148.9,91.9L148.9,91.9z"
   id="path4"
   style="fill:#ffffff;fill-opacity:1" />
<rect
   x="177.3"
   y="67.7"
   class="st1"
   width="5.2"
   height="24.2"
   id="rect4"
   style="fill:#ffffff;fill-opacity:1" />
<polygon
   class="st1"
   points="197.1,72.1 197.1,91.9 191.9,91.9 191.9,72.1 185.9,72.1 185.9,67.7 203,67.7 203,72.1 "
   id="polygon4"
   style="fill:#ffffff;fill-opacity:1" />
<rect
   x="206.4"
   y="67.7"
   class="st1"
   width="5.2"
   height="24.2"
   id="rect5"
   style="fill:#ffffff;fill-opacity:1" />
<path
   class="st1"
   d="M229.7,82.7L229.7,82.7l-2.7-7.8c-0.1-0.2-0.2-0.6-0.3-1.2s-0.2-1.2-0.4-2.1c-0.1,0.8-0.3,1.5-0.4,2.1  s-0.2,1-0.3,1.2l-2.6,7.7L229.7,82.7L229.7,82.7z M214.3,91.9l9.2-24.2h5.9l9.4,24.2h-5.9l-2-5.2h-9.4l-1.7,5.2H214.3L214.3,91.9z"
   id="path5"
   style="fill:#ffffff;fill-opacity:1" />
<polygon
   class="st1"
   points="248.6,72.1 248.6,91.9 243.4,91.9 243.4,72.1 237.4,72.1 237.4,67.7 254.5,67.7 254.5,72.1 "
   id="polygon5"
   style="fill:#ffffff;fill-opacity:1" />
<path
   class="st1"
   d="M269.2,88L269.2,88c2.1,0.1,4-0.8,5.4-2.3c2.9-3.3,2.9-8.3,0-11.6c-2.8-3-7.5-3.1-10.5-0.3  c-0.1,0.1-0.2,0.2-0.3,0.3c-2.9,3.3-2.9,8.3,0,11.6C265.1,87.2,267.1,88.1,269.2,88 M282,79.9c0,1.7-0.3,3.4-1,4.9  c-0.6,1.5-1.6,2.9-2.8,4.1c-1.2,1.2-2.7,2.1-4.2,2.8c-3,1.2-6.2,1.3-9.2,0.2c-1.4-0.5-2.7-1.2-3.9-2.2c-3-2.4-4.8-6-4.7-9.8  c0-1.7,0.3-3.4,1-4.9c0.6-1.5,1.6-2.9,2.8-4.1c2.5-2.4,5.8-3.7,9.2-3.7c1.7,0,3.4,0.3,4.9,1c1.6,0.6,3,1.6,4.2,2.8  c1.2,1.2,2.2,2.6,2.8,4.1C281.7,76.6,282.1,78.2,282,79.9"
   id="path6"
   style="fill:#ffffff;fill-opacity:1" />
<path
   class="st1"
   d="M291.6,78h0.8c2.1,0,3.5-0.2,4.1-0.7c0.7-0.6,1.1-1.5,1-2.4c0.1-1-0.3-1.9-1.1-2.5c-1.3-0.6-2.7-0.9-4.1-0.8  h-0.8V78z M303.9,91.9h-6l-6.3-11.4v11.3h-5.2V67.7h7.4c2.9,0,5.2,0.6,6.6,1.7c1.5,1.3,2.3,3.2,2.2,5.2c0,1.6-0.5,3.1-1.5,4.3  c-1,1.2-2.4,1.9-3.9,2.1L303.9,91.9z"
   id="path7"
   style="fill:#ffffff;fill-opacity:1" />
<path
   class="st1"
   d="M305.4,88.9l2.9-3.2c0.3,0.9,1,1.6,1.8,2.1c0.8,0.5,1.7,0.8,2.7,0.8c1,0.1,2-0.2,2.9-0.9  c0.7-0.6,1.1-1.4,1.1-2.3c0-1.1-1.2-2.3-3.5-3.4c-0.8-0.4-1.4-0.7-1.8-0.9c-1.7-0.8-3.2-1.9-4.4-3.2c-0.8-1.1-1.3-2.4-1.2-3.8  c0-1.9,0.8-3.8,2.4-4.9c1.8-1.3,3.9-2,6.2-1.9c1.3,0,2.6,0.2,3.8,0.8c1.1,0.6,2.1,1.4,2.8,2.4l-3.1,2.9c-0.3-0.7-0.8-1.2-1.4-1.6  c-0.7-0.4-1.4-0.6-2.2-0.5c-0.9,0-1.8,0.2-2.5,0.8c-0.6,0.5-1,1.2-0.9,2c0,1.3,1.2,2.5,3.7,3.5l1.1,0.5c1.7,0.7,3.3,1.8,4.6,3.2  c1,1.1,1.5,2.5,1.5,4c0.1,2.1-0.8,4.1-2.3,5.5c-1.8,1.4-4,2.1-6.2,2c-1.6,0-3.3-0.3-4.8-1C307.1,91,306.1,90,305.4,88.9"
   id="path8"
   style="fill:#ffffff;fill-opacity:1" />
<path
   class="st0"
   d="M179.8,4.1c12.1,14.7-21,32.4-47.5,37.8c11.3,7.3,36.6,11.5,57.4,0.2c11.2-6.9,14.4-15.2,11.1-22.9  C197.2,11,186.8,6,179.8,4.1"
   id="path9"
   style="fill:#ffffff;fill-opacity:1" />
<path
   class="st0"
   d="M124.6,36.6c0.1,0,28.5-8,36.8-20C169,5.2,149.1,2.9,146.9,2.7c-7.4,1.7-18.6,6.3-23.7,14.5  C118.2,25.7,121.1,32,124.6,36.6"
   id="path10"
   style="fill:#ffffff;fill-opacity:1" />
<path
   class="st2"
   d="M154.4,2.3c4.9-0.6,9.8-0.6,14.8-0.2c4.3,1.1,17.4,6.4,3.1,18.7c-14.5,12.1-37.5,16.9-43.8,18.4  c-0.6-0.5-1.3-1.2-1.5-1.4c6-1.8,25.3-8.4,33.9-17.6C168.2,12.3,165.4,5.3,154.4,2.3"
   id="path11"
   style="fill:#fefffe;fill-opacity:1" />
</svg>
