<?xml version="1.0" encoding="UTF-8" standalone="no"?>
<!-- Created with Inkscape (http://www.inkscape.org/) -->

<svg
   width="1051.041"
   height="253.80499"
   viewBox="0 0 1051.0409 253.80499"
   id="svg4181"
   version="1.1"
   inkscape:version="1.3.2 (091e20e, 2023-11-25, custom)"
   sodipodi:docname="Walmart.svg"
   xmlns:inkscape="http://www.inkscape.org/namespaces/inkscape"
   xmlns:sodipodi="http://sodipodi.sourceforge.net/DTD/sodipodi-0.dtd"
   xmlns="http://www.w3.org/2000/svg"
   xmlns:svg="http://www.w3.org/2000/svg"
   xmlns:rdf="http://www.w3.org/1999/02/22-rdf-syntax-ns#"
   xmlns:cc="http://creativecommons.org/ns#"
   xmlns:dc="http://purl.org/dc/elements/1.1/">
  <defs
     id="defs4183">
    <sodipodi:namedview
       id="namedview18"
       inkscape:cy="93.298193"
       inkscape:cx="701.65663"
       showgrid="false"
       fit-margin-top="0"
       objecttolerance="10"
       fit-margin-left="0"
       inkscape:zoom="2.2133333"
       gridtolerance="10"
       guidetolerance="10"
       bordercolor="#666666"
       pagecolor="#ffffff"
       borderopacity="1"
       inkscape:current-layer="g4820"
       inkscape:window-maximized="1"
       inkscape:window-y="-11"
       inkscape:window-x="-11"
       fit-margin-bottom="0"
       fit-margin-right="0"
       inkscape:window-height="1398"
       inkscape:pageshadow="2"
       inkscape:window-width="2256"
       inkscape:pageopacity="0"
       inkscape:showpageshadow="2"
       inkscape:pagecheckerboard="0"
       inkscape:deskcolor="#d1d1d1" />
  </defs>
  <sodipodi:namedview
     id="base"
     pagecolor="#ffffff"
     bordercolor="#666666"
     borderopacity="1.0"
     inkscape:pageopacity="0.0"
     inkscape:pageshadow="2"
     inkscape:zoom="0.5"
     inkscape:cx="517.94647"
     inkscape:cy="14.808664"
     inkscape:document-units="px"
     inkscape:current-layer="layer1"
     showgrid="false"
     units="px"
     inkscape:window-width="1366"
     inkscape:window-height="705"
     inkscape:window-x="-8"
     inkscape:window-y="-8"
     inkscape:window-maximized="1" />
  <metadata
     id="metadata4186">
    <rdf:RDF>
      <cc:Work
         rdf:about="">
        <dc:format>image/svg+xml</dc:format>
        <dc:type
           rdf:resource="http://purl.org/dc/dcmitype/StillImage" />
        <dc:title />
      </cc:Work>
    </rdf:RDF>
  </metadata>
  <g
     inkscape:label="Layer 1"
     inkscape:groupmode="layer"
     id="layer1"
     transform="translate(0,-798.55716)">
    <g
       id="g4828"
       transform="matrix(1.1847072,0,0,1.1847072,0,-194.37883)">
      <g
         transform="translate(495.01552,-21.403095)"
         id="g4820">
        <path
           d="m 296.70455,931.65059 c 5.01953,0 9.15207,-2.61109 9.71017,-5.98291 l 4.95639,-56.04828 c 0,-5.54108 -6.49117,-10.08888 -14.64996,-10.08888 -8.15217,0 -14.63668,4.5478 -14.63668,10.08888 l 4.95308,56.04828 c 0.54481,3.37182 4.67735,5.98291 9.6836,5.98291 l -0.0166,0"
           class="st0"
           inkscape:connector-curvature="0"
           id="path2974"
           style="fill:#ffffff;fill-opacity:1" />
        <path
           d="m 266.41131,949.15781 c 2.51808,-4.34184 2.32871,-9.22185 -0.32555,-11.39111 l -46.06934,-32.31631 c -4.79031,-2.77387 -11.97246,0.56473 -16.04853,7.63393 -4.08938,7.05923 -3.36518,14.94563 1.41185,17.71916 l 51.01248,23.75256 c 3.1891,1.1823 7.53758,-1.09293 10.03574,-5.43145 l -0.0166,0.0332"
           class="st0"
           inkscape:connector-curvature="0"
           id="path2976"
           style="fill:#ffffff;fill-opacity:1" />
        <path
           d="m 327.02435,949.12758 c 2.51476,4.33885 6.83997,6.61408 10.0324,5.43145 l 51.01247,-23.75223 c 4.80692,-2.77353 5.49125,-10.66026 1.43842,-17.71949 -4.09601,-7.06222 -11.29144,-10.4078 -16.06847,-7.6336 l -46.07269,32.31632 c -2.63434,2.16593 -2.83033,7.04893 -0.32556,11.39077 l -0.0199,-0.0332"
           class="st0"
           inkscape:connector-curvature="0"
           id="path2978"
           style="fill:#fffffe;fill-opacity:1" />
        <path
           d="m 296.70455,1001.6648 c 5.01953,0 9.15207,2.5879 9.71017,5.963 l 4.95639,56.042 c 0,5.5577 -6.49117,10.0955 -14.64996,10.0955 -8.15217,0 -14.63668,-4.5378 -14.63668,-10.0955 l 4.95308,-56.042 c 0.54481,-3.3751 4.67735,-5.963 9.6836,-5.963 l -0.0166,0"
           class="st0"
           inkscape:connector-curvature="0"
           id="path2980"
           style="fill:#ffffff;fill-opacity:1" />
        <path
           d="m 327.02435,984.15464 c 2.51476,-4.35214 6.83997,-6.60744 10.0324,-5.41152 l 51.01247,23.73558 c 4.80692,2.7772 5.49125,10.6703 1.43842,17.7361 -4.09601,7.0393 -11.29144,10.3945 -16.06847,7.624 l -46.07269,-32.28641 c -2.63434,-2.18255 -2.83033,-7.0692 -0.32556,-11.40738 l -0.0199,0"
           class="st0"
           inkscape:connector-curvature="0"
           id="path2982"
           style="fill:#ffffff;fill-opacity:1" />
        <path
           d="m 266.41131,984.148 c 2.51808,4.33553 2.32871,9.22184 -0.32555,11.40771 l -46.06934,32.28639 c -4.79031,2.7706 -11.97246,-0.5846 -16.04853,-7.6243 -4.08938,-7.0655 -3.36518,-14.9589 1.41185,-17.7361 l 51.01248,-23.73559 c 3.1891,-1.19592 7.53758,1.05971 10.03574,5.41185 l -0.0166,0"
           class="st0"
           inkscape:connector-curvature="0"
           id="path2984"
           style="fill:#ffffff;fill-opacity:1" />
      </g>
      <g
         transform="translate(495.01552,-21.403095)"
         id="g4811"
         style="fill:#ffffff;fill-opacity:1">
        <path
           d="m 6.1068694,995.44941 c 0,1.72045 -0.1528115,3.49473 -0.6245673,5.05279 -1.9533302,6.4712 -8.6537508,11.9425 -17.0351651,11.9425 -6.9895,0 -12.540512,-3.9698 -12.540512,-12.3545 0,-12.83315 14.1251016,-16.37772 30.2035332,-16.28769 l 0,11.6469 -0.00329,0 z M 31.327384,973.08544 c 0,-21.16075 -9.04249,-39.7805 -39.5948318,-39.7805 -15.6830812,0 -28.1306112,4.40496 -34.9240812,8.33155 l 4.976341,17.01191 c 6.208833,-3.92028 16.105041,-7.16553 25.469731,-7.16553 15.4970833,-0.0432 18.0350836,8.7767 18.0350836,14.42076 l 0,1.3351 c -33.7813166,-0.0498 -55.1350676,11.6469 -55.1350676,35.47557 0,14.5606 10.876195,28.197 29.78164,28.197 11.6169658,0 21.3470745,-4.6375 27.1705562,-12.0721 l 0.5747042,0 c 0,0 3.8535416,16.1416 25.1242436,9.966 -1.109545,-6.7138 -1.474964,-13.8793 -1.474964,-22.4965 l 0,-33.22326"
           class="st1"
           inkscape:connector-curvature="0"
           id="path2986"
           style="fill:#ffffff;fill-opacity:1" />
        <path
           d="m -495.01532,904.48668 c 0,0 22.07459,90.45479 25.59925,105.13432 4.11263,17.1348 11.52395,23.4433 32.88109,19.1845 l 13.78287,-56.07851 c 3.49477,-13.93541 5.83348,-23.87182 8.08573,-38.03313 l 0.39202,0 c 1.58131,14.3108 3.82362,24.14057 6.70046,38.07997 0,0 5.60745,25.4594 8.48429,38.82747 2.8802,13.364 10.89613,21.7922 31.81802,17.2042 l 32.84452,-124.32181 -26.50951,0 -11.21843,53.75312 c -3.01633,15.63993 -5.75033,27.87149 -7.85983,42.17929 l -0.37538,0 c -1.91679,-14.17791 -4.35849,-25.91483 -7.42136,-41.15612 l -11.67015,-54.77629 -27.62571,0 -12.49071,53.39434 c -3.5346,16.23124 -6.84998,29.32952 -8.94944,43.15897 l -0.382,0 c -2.15594,-13.02221 -5.02617,-29.49263 -8.13223,-45.19568 0,0 -7.41465,-38.19259 -10.02244,-51.35763 l -27.93126,0"
           class="st1"
           inkscape:connector-curvature="0"
           id="path2988"
           style="fill:#ffffff;fill-opacity:1" />
        <path
           d="m -284.28163,995.44941 c 0,1.72045 -0.15281,3.49473 -0.63118,5.05279 -1.95004,6.4712 -8.65385,11.9425 -17.03513,11.9425 -6.9895,0 -12.53394,-3.9698 -12.53394,-12.3545 0,-12.83315 14.12182,-16.37772 30.2036,-16.28769 l 0,11.6469 -0.003,0 z m 25.21723,-22.36397 c 0,-21.16075 -9.0424,-39.7805 -39.58813,-39.7805 -15.6865,0 -28.14396,4.40496 -34.93401,8.33155 l 4.9697,17.01191 c 6.20876,-3.92028 16.10497,-7.16553 25.47302,-7.16553 15.50705,-0.0432 18.04508,8.7767 18.04508,14.42076 l 0,1.3351 c -33.79464,-0.0498 -55.13839,11.6469 -55.13839,35.47557 0,14.5606 10.86958,28.197 29.76167,28.197 11.63365,0 21.35701,-4.6375 27.18714,-12.0721 l 0.56802,0 c 0,0 3.86345,16.1416 25.13086,9.966 -1.11283,-6.7138 -1.47496,-13.8793 -1.47496,-22.4965 l 0,-33.22326"
           class="st1"
           inkscape:connector-curvature="0"
           id="path2990"
           style="fill:#ffffff;fill-opacity:1" />
        <path
           d="m -216.97808,1002.416 0,-97.92932 -25.25045,0 0,124.32212 25.25045,0 0,-26.3928"
           class="st1"
           inkscape:connector-curvature="0"
           id="path2992"
           style="fill:#ffffff;fill-opacity:1" />
        <path
           d="m 113.33735,904.48668 c 0,11.92594 0,91.71051 0,91.71051 0,12.65011 2.38519,21.50321 7.47112,26.92141 4.4548,4.7372 11.77645,7.8033 20.55649,7.8033 7.46783,0 14.80946,-1.4251 18.27429,-2.7107 l -0.32559,-19.726 c -2.57787,0.6309 -5.53778,1.1395 -9.59056,1.1395 -8.60395,0 -11.48078,-5.5115 -11.48078,-16.86278 l 0,-35.08985 21.98826,0 0,-23.7891 -21.98826,0 0,-29.39629 -24.90494,0"
           class="st1"
           inkscape:connector-curvature="0"
           id="path2994"
           style="fill:#ffffff;fill-opacity:1" />
        <path
           d="m 48.163263,935.4144 0,93.3944 26.047723,0 0,-47.82002 c 0,-2.5845 0.156134,-4.83715 0.564739,-6.89678 1.926754,-10.02211 9.587263,-16.4206 20.589694,-16.4206 3.016367,0 5.175661,0.32888 7.514311,0.66108 l 0,-24.44985 c -1.9633,-0.39199 -3.295417,-0.5747 -5.73708,-0.5747 -9.720143,0 -20.779081,6.27192 -25.419867,19.72598 l -0.704262,0 0,-17.61951 -22.855325,0"
           class="st1"
           inkscape:connector-curvature="0"
           id="path2996"
           style="fill:#ffffff;fill-opacity:1" />
        <path
           d="m -199.29845,935.4144 0,93.3944 25.37668,0 0,-54.7663 c 0,-2.57122 0.3023,-5.28861 1.19256,-7.6439 2.10282,-5.5145 7.23526,-11.97245 15.42404,-11.97245 10.24501,0 15.02868,8.65711 15.02868,21.15078 l 0,53.22827 25.35672,0 0,-55.43407 c 0,-2.45196 0.33552,-5.40853 1.05971,-7.57115 2.08289,-6.27524 7.61068,-11.37781 15.22471,-11.37781 10.381222,0 15.364207,8.50429 15.364207,23.21074 0,0 0,39.44859 0,51.16859 l 25.37336,0 0,-55.00881 c 0,-29.00762 -14.729704,-40.4914 -31.359586,-40.4914 -7.358208,0 -13.171691,1.8437 -18.430401,5.06271 -4.41492,2.72071 -8.37474,6.57422 -11.82964,11.64058 l -0.37542,0 c -4.00964,-10.06596 -13.44406,-16.70296 -25.73878,-16.70296 -15.79606,0 -22.89515,8.00599 -27.20045,14.79614 l -0.37871,0 0,-12.69 -24.08778,0"
           class="st1"
           inkscape:connector-curvature="0"
           id="path2998"
           style="fill:#ffffff;fill-opacity:1" />
      </g>
    </g>
  </g>
</svg>
