<?xml version="1.0" encoding="UTF-8" standalone="no"?>
<svg
   viewBox="0 0 569.77332 270.93332"
   height="270.93332"
   width="569.77332"
   xml:space="preserve"
   id="svg2"
   version="1.1"
   sodipodi:docname="wsp.svg"
   inkscape:version="1.3.2 (091e20e, 2023-11-25, custom)"
   xmlns:inkscape="http://www.inkscape.org/namespaces/inkscape"
   xmlns:sodipodi="http://sodipodi.sourceforge.net/DTD/sodipodi-0.dtd"
   xmlns="http://www.w3.org/2000/svg"
   xmlns:svg="http://www.w3.org/2000/svg"
   xmlns:rdf="http://www.w3.org/1999/02/22-rdf-syntax-ns#"
   xmlns:cc="http://creativecommons.org/ns#"
   xmlns:dc="http://purl.org/dc/elements/1.1/"><sodipodi:namedview
     id="namedview1"
     pagecolor="#ffffff"
     bordercolor="#000000"
     borderopacity="0.25"
     inkscape:showpageshadow="2"
     inkscape:pageopacity="0.0"
     inkscape:pagecheckerboard="0"
     inkscape:deskcolor="#d1d1d1"
     inkscape:zoom="2.7274005"
     inkscape:cx="284.88666"
     inkscape:cy="135.47699"
     inkscape:window-width="2256"
     inkscape:window-height="1398"
     inkscape:window-x="-11"
     inkscape:window-y="-11"
     inkscape:window-maximized="1"
     inkscape:current-layer="svg2" /><metadata
     id="metadata8"><rdf:RDF><cc:Work
         rdf:about=""><dc:format>image/svg+xml</dc:format><dc:type
           rdf:resource="http://purl.org/dc/dcmitype/StillImage" /></cc:Work></rdf:RDF></metadata><defs
     id="defs6" /><g
     transform="matrix(1.3333333,0,0,-1.3333333,0,270.93333)"
     id="g10"
     style="fill:#ffffff;fill-opacity:1"><g
       transform="scale(0.1)"
       id="g12"
       style="fill:#ffffff;fill-opacity:1"><path
         id="path14"
         style="fill:#ffffff;fill-opacity:1;fill-rule:nonzero;stroke:none"
         d="m 3977.27,1482.89 c 0,230.65 -84.34,423.06 -194.66,549.1 h 320.53 c 105.13,-128.15 170.14,-346.13 170.14,-549.1 v -0.74 c 0,-203.28 -65.21,-421.63 -170.63,-549.701 h -320.57 c 110.58,126.021 195.19,318.691 195.19,549.701 v 0.74" /><path
         id="path16"
         style="fill:#ffffff;fill-opacity:1;fill-rule:nonzero;stroke:none"
         d="M 295.496,2032.04 H 0 L 405.52,932.309 h 157.05 l 69.223,187.721 -336.297,912.01" /><path
         id="path18"
         style="fill:#ffffff;fill-opacity:1;fill-rule:nonzero;stroke:none"
         d="M 1088.17,2032.04 H 792.676 L 1198.19,932.309 h 157.06 l 69.22,187.721 -336.3,912.01" /><path
         id="path20"
         style="fill:#ffffff;fill-opacity:1;fill-rule:nonzero;stroke:none"
         d="M 3345.25,0 V 2031.99 H 3062.52 V 0 h 282.73" /><path
         id="path22"
         style="fill:#ffffff;fill-opacity:1;fill-rule:nonzero;stroke:none"
         d="m 1724.41,1868.89 c 4.63,56.32 14.79,111.87 38.15,163.1 h 258.63 c -21.61,-39.01 -41.91,-110.14 -18.83,-180.82 20.85,-63.88 65.06,-107.41 120.77,-143.31 65.97,-42.52 143.02,-66.2 213.79,-99.16 74.19,-34.56 146.44,-70.68 208.48,-124.55 90.14,-78.27 144.92,-171.13 153.85,-291.09 1.07,-14.36 1.56,-28.76 1.56,-43.16 0,-75.13 -11.81,-149.66 -45.38,-217.451 h -265.54 c 26.11,44.422 46.67,104.941 42.94,160.851 -9.3,138.52 -178.5,214.29 -320.18,277.32 -21.58,9.6 -42.77,19.03 -63.05,28.51 -62.35,29.14 -123.43,62.59 -176.56,106.71 -54.9,45.59 -96.6,91.25 -122.22,158.21 -22.47,58.75 -30.71,122.45 -27.7,185.1 0.32,6.57 0.75,13.15 1.29,19.74" /></g></g></svg>
